<?xml version="1.0" encoding="UTF-8"?>
<svg id="Calque_1" xmlns="http://www.w3.org/2000/svg" version="1.1" viewBox="0 0 539.23 432.77">
  <!-- Generator: Adobe Illustrator 30.4.0, SVG Export Plug-In . SVG Version: 2.1.4 Build 226)  -->
  <defs>
    <style>
      .st0 {
        stroke: #fff;
        stroke-miterlimit: 10;
      }

      .st0, .st1 {
        fill: #fff;
      }

      .st2 {
        fill: none;
      }
    </style>
  </defs>
  <g>
    <path class="st1" d="M10.08,355.4h-.13c-.03-.77-.32-1.42-.86-1.97-.55-.55-1.2-.82-1.97-.82h-.58v-.44h3.54v3.23ZM10.08,379.9v3.23h-3.54v-.44h.58c.77,0,1.42-.27,1.97-.82.55-.54.83-1.2.86-1.97h.13ZM12.83,352.17v30.96h-2.87v-30.96h2.87ZM12.69,355.4v-3.23h3.54v.44h-.57c-.77,0-1.42.27-1.97.82-.55.55-.83,1.2-.86,1.97h-.13ZM24.77,381.76v1.37h-12.07v-1.37h12.07ZM27.46,375.96l-2.56,7.16h-7.34l1.59-1.37c1.56,0,2.84-.24,3.83-.73.99-.49,1.79-1.17,2.41-2.06s1.16-1.89,1.64-3.01h.44Z"/>
    <path class="st1" d="M34.27,355.4h-.13c0-.77-.28-1.42-.84-1.97s-1.22-.82-1.99-.82h-.53l-.04-.44h3.54v3.23ZM34.27,379.9v3.23h-3.54v-.44h.58c.77,0,1.42-.27,1.97-.82.55-.54.83-1.2.86-1.97h.13ZM37.02,352.17v30.96h-2.87v-30.96h2.87ZM48.96,352.17v1.37h-12.07v-1.37h12.07ZM47.06,367.21v1.33h-10.17v-1.33h10.17ZM48.96,381.76v1.37h-12.07v-1.37h12.07ZM51.65,375.96l-2.56,7.16h-7.34l1.59-1.37c1.56,0,2.84-.24,3.83-.73.99-.49,1.79-1.17,2.41-2.06s1.16-1.89,1.64-3.01h.44ZM48.96,351.38v1.28l-5.4-.49c.65,0,1.33-.04,2.06-.13.72-.09,1.39-.19,2.01-.31.62-.12,1.06-.24,1.33-.35ZM47.06,364.38v2.92h-2.56v-.09c.59-.03,1.09-.26,1.5-.69.41-.43.62-.94.62-1.53v-.62h.44ZM47.06,368.45v2.92h-.44v-.66c0-.59-.21-1.1-.62-1.53-.41-.43-.91-.64-1.5-.64v-.09h2.56ZM48.96,353.41v3.54h-.44v-.8c0-.71-.25-1.32-.75-1.84-.5-.51-1.12-.79-1.86-.82v-.09h3.05Z"/>
    <path class="st1" d="M64.7,351.55c.47,0,.98.03,1.53.09.55.06,1.08.14,1.59.24.52.1.99.21,1.42.31.43.1.76.21,1,.33v4.91h-.4c0-1.42-.49-2.53-1.46-3.34-.97-.81-2.15-1.22-3.54-1.22-1.62,0-2.93.51-3.94,1.53-1,1.02-1.5,2.2-1.5,3.56,0,.56.12,1.22.38,1.97.25.75.71,1.45,1.39,2.1l8.71,8.05c.88.83,1.47,1.71,1.77,2.65.29.94.44,1.86.44,2.74,0,2.45-.75,4.44-2.23,5.97-1.49,1.53-3.5,2.3-6.04,2.3-.71,0-1.54-.07-2.5-.22-.96-.15-1.89-.41-2.79-.77-.9-.37-1.64-.85-2.23-1.44-.09-.47-.13-1.06-.13-1.77s.06-1.45.18-2.23c.12-.78.28-1.5.49-2.14h.4c-.15,1.5.04,2.82.57,3.94.53,1.12,1.3,1.97,2.32,2.54s2.17.83,3.47.77c1.62-.09,3.01-.66,4.18-1.7,1.16-1.05,1.75-2.45,1.75-4.22,0-.85-.15-1.63-.44-2.32-.29-.69-.72-1.29-1.28-1.79l-8.49-7.87c-.88-.83-1.5-1.73-1.86-2.72-.35-.99-.53-1.91-.53-2.76,0-1.24.29-2.43.88-3.58.59-1.15,1.47-2.08,2.63-2.81,1.16-.72,2.59-1.08,4.27-1.08ZM70.23,352v.93h-3.36v-.93h3.36Z"/>
    <path class="st1" d="M117.06,370.22l-.53,6.94c-.77,1.27-1.73,2.4-2.9,3.38-1.17.99-2.54,1.77-4.11,2.34-1.58.58-3.38.86-5.42.86-3.07-.03-5.79-.71-8.18-2.03-2.39-1.33-4.25-3.19-5.59-5.59-1.34-2.4-2.01-5.24-2.01-8.51s.66-6.02,1.99-8.42c1.33-2.4,3.19-4.27,5.59-5.62,2.4-1.34,5.23-2.01,8.47-2.01,2.18,0,4.15.29,5.9.86,1.75.58,3.28,1.29,4.58,2.14l.88,6.24h-.4c-.65-2.59-1.98-4.56-3.98-5.9-2.01-1.34-4.33-2.01-6.99-2.01s-4.84.61-6.74,1.83c-1.9,1.22-3.38,2.93-4.42,5.13-1.05,2.2-1.57,4.77-1.57,7.72s.52,5.53,1.57,7.74c1.05,2.21,2.51,3.94,4.38,5.17,1.87,1.24,4.05,1.89,6.52,1.95,2.09,0,4.03-.39,5.82-1.17,1.78-.78,3.28-2.06,4.49-3.85,1.21-1.78,1.98-4.18,2.3-7.19h.35Z"/>
    <path class="st1" d="M125.46,355.4h-.13c-.03-.77-.32-1.42-.86-1.97-.55-.55-1.2-.82-1.97-.82h-.58v-.44h3.54v3.23ZM125.46,379.9v3.23h-3.54v-.44h.58c.77,0,1.42-.27,1.97-.82.55-.54.83-1.2.86-1.97h.13ZM128.21,352.17v30.96h-2.87v-30.96h2.87ZM146.69,367.16v1.33h-18.93v-1.33h18.93ZM128.07,355.4v-3.23h3.54v.44h-.57c-.77,0-1.42.27-1.97.82-.55.55-.83,1.2-.86,1.97h-.13ZM128.07,379.9h.13c.03.77.32,1.42.86,1.97.54.55,1.2.82,1.97.82h.57v.44h-3.54v-3.23ZM146.43,355.4h-.13c0-.77-.28-1.42-.84-1.97-.56-.55-1.22-.82-1.99-.82h-.57v-.44h3.54v3.23ZM146.43,379.9v3.23h-3.54v-.44h.57c.77,0,1.43-.27,1.99-.82.56-.54.84-1.2.84-1.97h.13ZM149.17,352.17v30.96h-2.87v-30.96h2.87ZM149.04,355.4v-3.23h3.54v.44h-.57c-.77,0-1.42.27-1.97.82-.55.55-.83,1.2-.86,1.97h-.13ZM149.04,379.9h.13c.03.77.32,1.42.86,1.97.55.55,1.2.82,1.97.82h.57v.44h-3.54v-3.23Z"/>
    <path class="st1" d="M161.59,379.9c-.21.59-.24,1.09-.09,1.5.15.41.39.73.73.95.34.22.69.33,1.04.33h.4v.44h-8.89v-.44h.4c.68,0,1.38-.21,2.1-.64.72-.43,1.32-1.14,1.79-2.15h2.52ZM171.1,351.55l.4,3.1-11.1,28.35h-2.65l11.32-26.89c.32-.74.6-1.37.82-1.9.22-.53.41-1.05.58-1.55.16-.5.24-.87.24-1.11h.4ZM177.34,371.06v1.33h-13.84v-1.33h13.84ZM171.1,351.55l13.09,31.31h-3.76l-10.22-27.11.88-4.2ZM179.33,379.9h3.63c.44,1,1.03,1.72,1.77,2.15.74.43,1.44.64,2.12.64h.35v.44h-9.95v-.44h.4c.56,0,1.06-.24,1.5-.73s.5-1.17.18-2.06Z"/>
    <path class="st1" d="M192.37,379.99v3.14h-3.67v-.44h.84c.74,0,1.37-.27,1.9-.8s.8-1.16.8-1.9h.13ZM192.29,351.51l1.95,2.48.04,29.14h-2.03v-26.09c0-1.5-.13-3.35-.4-5.53h.44ZM192.29,351.51l25.69,27.42.4,4.82-25.69-27.38-.4-4.86ZM194.28,379.99c0,.74.27,1.37.8,1.9s1.16.8,1.9.8h.84v.44h-3.67v-3.14h.13ZM212.81,352.17h3.67v3.14h-.09c-.03-.77-.3-1.41-.82-1.92-.52-.51-1.16-.77-1.92-.77h-.84v-.44ZM218.38,352.17v25.92c0,.94.03,1.85.09,2.72.06.87.16,1.85.31,2.94h-.4l-1.99-2.34v-29.23h1.99ZM221.92,352.17v.44h-.8c-.74,0-1.37.26-1.9.77-.53.52-.81,1.16-.84,1.92h-.13v-3.14h3.67Z"/>
    <path class="st1" d="M224.79,351.33c.29.12.74.24,1.35.35.6.12,1.27.22,2.01.31.74.09,1.42.13,2.03.13l-5.4.49v-1.28ZM250.4,352.13v1.33h-25.61v-1.33h25.61ZM227.84,353.32v.13c-.74.03-1.36.29-1.86.8s-.75,1.12-.75,1.86v.75l-.44.04v-3.58h3.05ZM236.29,379.9v3.23h-3.54v-.44h.58c.77,0,1.42-.27,1.97-.82.55-.54.83-1.2.86-1.97h.13ZM239.03,352.3v30.82h-2.87v-30.82h2.87ZM238.9,379.9h.13c.03.77.32,1.42.86,1.97.54.55,1.2.82,1.97.82h.57v.44h-3.54v-3.23ZM250.4,351.33v1.28l-5.4-.49c.65,0,1.33-.04,2.06-.13.72-.09,1.39-.19,2.01-.31.62-.12,1.06-.24,1.33-.35ZM250.4,353.32v3.58l-.44-.04v-.75c0-.74-.26-1.36-.77-1.86-.52-.5-1.13-.77-1.83-.8v-.13h3.05Z"/>
    <path class="st1" d="M262.34,351.55c.47,0,.98.03,1.53.09.55.06,1.08.14,1.59.24.52.1.99.21,1.42.31.43.1.76.21,1,.33v4.91h-.4c0-1.42-.49-2.53-1.46-3.34-.97-.81-2.15-1.22-3.54-1.22-1.62,0-2.93.51-3.94,1.53-1,1.02-1.5,2.2-1.5,3.56,0,.56.12,1.22.38,1.97.25.75.71,1.45,1.39,2.1l8.71,8.05c.88.83,1.47,1.71,1.77,2.65.29.94.44,1.86.44,2.74,0,2.45-.75,4.44-2.23,5.97-1.49,1.53-3.5,2.3-6.04,2.3-.71,0-1.54-.07-2.5-.22-.96-.15-1.89-.41-2.79-.77-.9-.37-1.64-.85-2.23-1.44-.09-.47-.13-1.06-.13-1.77s.06-1.45.18-2.23c.12-.78.28-1.5.49-2.14h.4c-.15,1.5.04,2.82.57,3.94.53,1.12,1.3,1.97,2.32,2.54s2.17.83,3.47.77c1.62-.09,3.01-.66,4.18-1.7,1.16-1.05,1.75-2.45,1.75-4.22,0-.85-.15-1.63-.44-2.32-.29-.69-.72-1.29-1.28-1.79l-8.49-7.87c-.88-.83-1.5-1.73-1.86-2.72-.35-.99-.53-1.91-.53-2.76,0-1.24.29-2.43.88-3.58.59-1.15,1.47-2.08,2.63-2.81,1.16-.72,2.59-1.08,4.27-1.08ZM267.86,352v.93h-3.36v-.93h3.36Z"/>
    <path class="st1" d="M289.49,355.4h-.13c0-.77-.28-1.42-.84-1.97-.56-.55-1.22-.82-1.99-.82h-.53l-.04-.44h3.54v3.23ZM289.49,379.9v3.23h-3.54v-.44h.58c.77,0,1.42-.27,1.97-.82s.83-1.2.86-1.97h.13ZM292.23,352.17v30.96h-2.88v-30.96h2.88ZM300.94,352.17c3.15,0,5.92.64,8.29,1.92,2.37,1.28,4.23,3.09,5.57,5.42,1.34,2.33,2.01,5.04,2.01,8.14s-.67,5.8-2.01,8.12c-1.34,2.31-3.2,4.12-5.57,5.42-2.37,1.3-5.14,1.95-8.29,1.95h-9.46l-.04-1.33h9.51c2.54,0,4.74-.59,6.61-1.77,1.87-1.18,3.33-2.83,4.38-4.95s1.57-4.6,1.57-7.43-.52-5.31-1.57-7.43-2.51-3.77-4.4-4.95c-1.89-1.18-4.08-1.77-6.59-1.77h-9.95v-1.33h9.95Z"/>
    <path class="st1" d="M324.29,355.4h-.13c0-.77-.28-1.42-.84-1.97-.56-.55-1.22-.82-1.99-.82h-.53l-.04-.44h3.54v3.23ZM324.29,379.9v3.23h-3.54v-.44h.58c.77,0,1.42-.27,1.97-.82s.83-1.2.86-1.97h.13ZM327.04,352.17v30.96h-2.88v-30.96h2.88ZM338.98,352.17v1.37h-12.07v-1.37h12.07ZM337.08,367.21v1.33h-10.17v-1.33h10.17ZM338.98,381.76v1.37h-12.07v-1.37h12.07ZM341.67,375.96l-2.56,7.16h-7.34l1.59-1.37c1.56,0,2.84-.24,3.83-.73.99-.49,1.79-1.17,2.41-2.06s1.16-1.89,1.64-3.01h.44ZM338.98,351.38v1.28l-5.4-.49c.65,0,1.33-.04,2.06-.13.72-.09,1.39-.19,2.01-.31.62-.12,1.06-.24,1.33-.35ZM337.08,364.38v2.92h-2.57v-.09c.59-.03,1.09-.26,1.5-.69.41-.43.62-.94.62-1.53v-.62h.44ZM337.08,368.45v2.92h-.44v-.66c0-.59-.21-1.1-.62-1.53-.41-.43-.91-.64-1.5-.64v-.09h2.57ZM338.98,353.41v3.54h-.44v-.8c0-.71-.25-1.32-.75-1.84-.5-.51-1.12-.79-1.86-.82v-.09h3.05Z"/>
    <path class="st1" d="M354.72,351.55c.47,0,.98.03,1.53.09.54.06,1.08.14,1.59.24s.99.21,1.42.31.76.21,1,.33v4.91h-.4c0-1.42-.49-2.53-1.46-3.34-.97-.81-2.15-1.22-3.54-1.22-1.62,0-2.93.51-3.94,1.53-1,1.02-1.5,2.2-1.5,3.56,0,.56.12,1.22.38,1.97.25.75.71,1.45,1.39,2.1l8.71,8.05c.88.83,1.47,1.71,1.77,2.65.29.94.44,1.86.44,2.74,0,2.45-.74,4.44-2.23,5.97-1.49,1.53-3.5,2.3-6.04,2.3-.71,0-1.54-.07-2.5-.22-.96-.15-1.89-.41-2.79-.77-.9-.37-1.64-.85-2.23-1.44-.09-.47-.13-1.06-.13-1.77s.06-1.45.18-2.23c.12-.78.28-1.5.49-2.14h.4c-.15,1.5.04,2.82.58,3.94.53,1.12,1.3,1.97,2.32,2.54,1.02.58,2.17.83,3.47.77,1.62-.09,3.01-.66,4.18-1.7,1.16-1.05,1.75-2.45,1.75-4.22,0-.85-.15-1.63-.44-2.32-.29-.69-.72-1.29-1.28-1.79l-8.49-7.87c-.88-.83-1.5-1.73-1.86-2.72-.35-.99-.53-1.91-.53-2.76,0-1.24.29-2.43.88-3.58.59-1.15,1.47-2.08,2.63-2.81,1.16-.72,2.59-1.08,4.27-1.08ZM360.25,352v.93h-3.36v-.93h3.36Z"/>
    <path class="st1" d="M381.87,355.4h-.13c0-.77-.28-1.42-.84-1.97-.56-.55-1.22-.82-1.99-.82h-.53l-.04-.44h3.54v3.23ZM381.87,379.9v3.23h-3.54v-.44h.58c.77,0,1.42-.27,1.97-.82s.83-1.2.86-1.97h.13ZM384.62,352.17v30.96h-2.88v-30.96h2.88ZM396.56,352.17v1.37h-12.07v-1.37h12.07ZM394.66,367.21v1.33h-10.17v-1.33h10.17ZM384.48,379.9h.13c.03.77.32,1.42.86,1.97.54.55,1.2.82,1.97.82h.58v.44h-3.54v-3.23ZM396.56,351.38v1.28l-5.4-.49c.65,0,1.33-.04,2.06-.13.72-.09,1.39-.19,2.01-.31.62-.12,1.06-.24,1.33-.35ZM394.66,364.38v2.92h-2.57v-.09c.59-.03,1.09-.26,1.5-.69.41-.43.62-.94.62-1.53v-.62h.44ZM394.66,368.45v2.92h-.44v-.66c0-.59-.21-1.1-.62-1.53-.41-.43-.91-.64-1.5-.64v-.09h2.57ZM396.56,353.41v2.96h-.44v-.66c0-.59-.21-1.1-.64-1.53s-.94-.64-1.53-.64v-.13h2.61Z"/>
    <path class="st1" d="M405.8,355.4h-.13c-.03-.77-.32-1.42-.86-1.97-.55-.55-1.2-.82-1.97-.82h-.58v-.44h3.54v3.23ZM405.8,379.9v3.23h-3.54v-.44h.58c.77,0,1.42-.27,1.97-.82s.83-1.2.86-1.97h.13ZM408.54,352.17v30.96h-2.88v-30.96h2.88ZM408.41,355.4v-3.23h3.54v.44h-.58c-.77,0-1.42.27-1.97.82-.55.55-.83,1.2-.86,1.97h-.13ZM420.48,381.76v1.37h-12.07v-1.37h12.07ZM423.18,375.96l-2.56,7.16h-7.34l1.59-1.37c1.56,0,2.84-.24,3.83-.73.99-.49,1.79-1.17,2.41-2.06s1.16-1.89,1.64-3.01h.44Z"/>
    <path class="st1" d="M429.99,355.4h-.13c0-.77-.28-1.42-.84-1.97-.56-.55-1.22-.82-1.99-.82h-.53l-.04-.44h3.54v3.23ZM429.99,379.9v3.23h-3.54v-.44h.58c.77,0,1.42-.27,1.97-.82s.83-1.2.86-1.97h.13ZM432.73,352.17v30.96h-2.88v-30.96h2.88ZM444.67,352.17v1.37h-12.07v-1.37h12.07ZM442.77,367.21v1.33h-10.17v-1.33h10.17ZM444.67,381.76v1.37h-12.07v-1.37h12.07ZM447.37,375.96l-2.56,7.16h-7.34l1.59-1.37c1.56,0,2.84-.24,3.83-.73.99-.49,1.79-1.17,2.41-2.06s1.16-1.89,1.64-3.01h.44ZM444.67,351.38v1.28l-5.4-.49c.65,0,1.33-.04,2.06-.13.72-.09,1.39-.19,2.01-.31.62-.12,1.06-.24,1.33-.35ZM442.77,364.38v2.92h-2.57v-.09c.59-.03,1.09-.26,1.5-.69.41-.43.62-.94.62-1.53v-.62h.44ZM442.77,368.45v2.92h-.44v-.66c0-.59-.21-1.1-.62-1.53-.41-.43-.91-.64-1.5-.64v-.09h2.57ZM444.67,353.41v3.54h-.44v-.8c0-.71-.25-1.32-.75-1.84-.5-.51-1.12-.79-1.86-.82v-.09h3.05Z"/>
    <path class="st1" d="M454.71,352.17v2.65h-.13c0-.65-.23-1.18-.69-1.59s-1.01-.62-1.66-.62h-.71v-.44h3.18ZM457.45,352.17v19.46c0,2.12.39,4,1.17,5.62.78,1.62,1.88,2.88,3.29,3.78,1.42.9,3.05,1.35,4.91,1.35,1.97,0,3.7-.43,5.17-1.28,1.47-.85,2.62-2.04,3.45-3.56.83-1.52,1.24-3.29,1.24-5.33v-20.03h2.08v20.03c0,2.3-.49,4.31-1.48,6.04-.99,1.72-2.38,3.07-4.18,4.05-1.8.97-3.89,1.46-6.28,1.46s-4.59-.48-6.43-1.44c-1.84-.96-3.27-2.3-4.29-4.02-1.02-1.72-1.53-3.74-1.53-6.04v-20.08h2.88ZM460.5,352.17v.44h-.71c-.65,0-1.2.21-1.66.62s-.68.94-.68,1.59h-.09v-2.65h3.14ZM476.82,352.17v2.65h-.13c0-.65-.23-1.18-.69-1.59-.46-.41-1.01-.62-1.66-.62h-.71v-.44h3.18ZM481.82,352.17v.44h-.71c-.65,0-1.2.21-1.66.62s-.69.94-.69,1.59h-.09v-2.65h3.14Z"/>
    <path class="st1" d="M489.65,355.4h-.13c-.03-.77-.32-1.42-.86-1.97-.55-.55-1.2-.82-1.97-.82h-.58v-.44h3.54v3.23ZM489.65,379.9v3.23h-3.54v-.44h.58c.77,0,1.42-.27,1.97-.82s.83-1.2.86-1.97h.13ZM492.39,352.17v30.96h-2.88v-30.96h2.88ZM498.05,352.17c1.33,0,2.53.19,3.6.58s1.98.94,2.72,1.66c.74.72,1.3,1.59,1.7,2.61.4,1.02.6,2.17.6,3.47,0,1.42-.33,2.77-1,4.07-.66,1.3-1.56,2.35-2.7,3.16-1.14.81-2.41,1.22-3.83,1.22.5.21,1.05.63,1.64,1.26.59.63,1.11,1.25,1.55,1.83.8,1.15,1.5,2.14,2.1,2.96.6.83,1.22,1.64,1.83,2.43s1.15,1.43,1.59,1.9c.59.65,1.18,1.22,1.77,1.73s1.23.9,1.92,1.19c.69.29,1.47.44,2.32.44v.44h-2.43c-1.36,0-2.53-.21-3.52-.62-.99-.41-1.82-.92-2.5-1.53-.68-.6-1.25-1.19-1.72-1.75-.09-.12-.33-.46-.73-1.02-.4-.56-.87-1.23-1.42-2.01s-1.08-1.55-1.61-2.32c-.53-.77-.99-1.42-1.37-1.97-.38-.54-.6-.86-.66-.95-.56-.74-1.18-1.42-1.86-2.03-.68-.62-1.42-.93-2.21-.93v-.44c.91.03,1.7.03,2.34,0,.77-.03,1.61-.15,2.52-.35.91-.21,1.77-.63,2.56-1.28s1.4-1.64,1.81-2.96c.09-.32.16-.73.22-1.22.06-.49.07-.96.04-1.44-.03-2-.54-3.6-1.53-4.8-.99-1.19-2.31-1.83-3.96-1.92-.83-.06-1.67-.08-2.54-.07-.87.02-1.89.02-3.07.02,0-.03-.04-.16-.11-.38-.07-.22-.18-.55-.33-1h6.24ZM492.26,379.9h.13c0,.77.28,1.42.84,1.97.56.55,1.22.82,1.99.82h.53v.44h-3.49v-3.23Z"/>
    <path class="st1" d="M523.61,351.55c.47,0,.98.03,1.53.09.54.06,1.08.14,1.59.24s.99.21,1.42.31.76.21,1,.33v4.91h-.4c0-1.42-.49-2.53-1.46-3.34-.97-.81-2.15-1.22-3.54-1.22-1.62,0-2.93.51-3.94,1.53-1,1.02-1.5,2.2-1.5,3.56,0,.56.12,1.22.38,1.97.25.75.71,1.45,1.39,2.1l8.71,8.05c.88.83,1.47,1.71,1.77,2.65.29.94.44,1.86.44,2.74,0,2.45-.74,4.44-2.23,5.97-1.49,1.53-3.5,2.3-6.04,2.3-.71,0-1.54-.07-2.5-.22-.96-.15-1.89-.41-2.79-.77-.9-.37-1.64-.85-2.23-1.44-.09-.47-.13-1.06-.13-1.77s.06-1.45.18-2.23c.12-.78.28-1.5.49-2.14h.4c-.15,1.5.04,2.82.58,3.94.53,1.12,1.3,1.97,2.32,2.54,1.02.58,2.17.83,3.47.77,1.62-.09,3.01-.66,4.18-1.7,1.16-1.05,1.75-2.45,1.75-4.22,0-.85-.15-1.63-.44-2.32-.29-.69-.72-1.29-1.28-1.79l-8.49-7.87c-.88-.83-1.5-1.73-1.86-2.72-.35-.99-.53-1.91-.53-2.76,0-1.24.29-2.43.88-3.58.59-1.15,1.47-2.08,2.63-2.81,1.16-.72,2.59-1.08,4.27-1.08ZM529.14,352v.93h-3.36v-.93h3.36Z"/>
  </g>
  <g>
    <path class="st0" d="M69.76,422.91c1.12.67,2.02,1.18,2.7,1.5.67.32,1.29.55,1.83.67.55.12,1.19.18,1.92.18,0,.4-.31.61-.93.61s-1.24-.11-1.89-.33c-.66-.22-1.44-.61-2.36-1.16s-2.09-1.32-3.51-2.32c-.91-.64-1.6-1.49-2.09-2.56-.49-1.07-.73-2.33-.73-3.78s.26-2.76.77-3.85c.51-1.09,1.24-1.94,2.19-2.53.95-.59,2.05-.89,3.32-.89s2.4.3,3.35.89c.95.6,1.69,1.44,2.2,2.53.51,1.09.77,2.38.77,3.85s-.26,2.78-.77,3.88c-.51,1.1-1.25,1.95-2.2,2.54-.95.6-2.07.89-3.35.89-.38,0-.78-.04-1.22-.12ZM66.16,419.25c.45,1.01,1.09,1.78,1.92,2.33.83.55,1.8.82,2.91.82s2.1-.27,2.93-.82c.83-.55,1.47-1.32,1.93-2.33.45-1.01.68-2.19.68-3.54s-.23-2.53-.68-3.53c-.45-1-1.09-1.77-1.93-2.31-.83-.54-1.81-.81-2.93-.81s-2.08.27-2.91.81c-.83.54-1.47,1.31-1.92,2.31-.45,1-.67,2.18-.67,3.53s.22,2.53.67,3.54Z"/>
    <path class="st0" d="M86.14,422.36c-.7-.45-1.24-1.09-1.62-1.92-.38-.83-.57-1.8-.57-2.91v-8.27c0-.47.17-.71.51-.71.08,0,.17.03.26.08v8.57c0,1.68.34,2.96,1.01,3.85.67.89,1.63,1.34,2.88,1.34s2.2-.44,2.88-1.34c.67-.89,1.01-2.18,1.01-3.85v-7.95c0-.47.17-.71.51-.71.08,0,.17.03.26.08v8.9c0,1.11-.19,2.08-.57,2.91-.38.83-.92,1.47-1.62,1.92s-1.53.67-2.47.67-1.77-.22-2.47-.67Z"/>
    <path class="st0" d="M98.3,422.83l4.76-13.6c.09-.26.2-.44.3-.55.11-.11.24-.16.4-.16.11,0,.21.02.3.06l4.76,13.62c.04.12.06.23.06.32,0,.28-.19.43-.57.43l-1.66-4.72h-5.98l-1.46,4.14c-.13.39-.32.59-.57.59-.12,0-.24-.04-.36-.12ZM106.45,417.58l-2.78-7.91-2.76,7.91h5.53Z"/>
    <path class="st0" d="M115.27,422.83v-13.46c0-.54.22-.81.67-.81.12,0,.24.03.34.08l7.78,13.11v-12.49c0-.47.17-.71.51-.71.08,0,.17.03.26.08v13.46c0,.54-.22.81-.67.81-.12,0-.24-.03-.34-.08l-7.78-13.11v12.49c0,.47-.17.71-.51.71-.08,0-.17-.03-.26-.08Z"/>
    <path class="st0" d="M139.02,409.33c1,.6,1.77,1.44,2.31,2.53.54,1.09.81,2.38.81,3.85s-.27,2.78-.81,3.88c-.54,1.1-1.31,1.95-2.31,2.54-1,.6-2.17.89-3.51.89-.4,0-1.01-.03-1.82-.08-.78-.06-1.35-.08-1.68-.08l-.12-.26c.2-.4.34-.88.42-1.42.07-.54.11-1.26.11-2.17v-6.61c0-.91-.04-1.63-.11-2.17-.07-.54-.21-1.01-.42-1.42l.12-.26c.54,0,1.1-.02,1.68-.06.2-.01.46-.03.76-.04.3-.01.66-.02,1.06-.02,1.34,0,2.51.3,3.51.89ZM138.63,421.56c.87-.55,1.54-1.32,2.02-2.32.47-1,.71-2.18.71-3.53s-.24-2.51-.71-3.51c-.47-1-1.15-1.77-2.02-2.31-.87-.54-1.89-.81-3.07-.81-.34,0-.65,0-.93.02-.28.01-.53.03-.75.04-.38.04-.74.06-1.07.06.26.67.39,1.74.39,3.2v6.61c0,1.49-.13,2.57-.39,3.24.34,0,.7.02,1.07.06.22.01.47.03.75.04s.59.02.93.02c1.18,0,2.2-.27,3.07-.82Z"/>
    <path class="st0" d="M164.4,422.42c0,.13-.05.24-.15.3-.1.07-.25.1-.44.1h-7.11l-.12-.26c.2-.41.34-.87.42-1.4.07-.53.11-1.24.11-2.15v-9.75c0-.47.17-.71.51-.71.08,0,.17.03.26.08v10.38c0,1.47-.12,2.53-.37,3.16h6.83c.04.08.06.16.06.24Z"/>
    <path class="st0" d="M169.59,422.83l4.76-13.6c.09-.26.2-.44.3-.55.11-.11.24-.16.4-.16.11,0,.21.02.3.06l4.76,13.62c.04.12.06.23.06.32,0,.28-.19.43-.57.43l-1.66-4.72h-5.98l-1.46,4.14c-.13.39-.32.59-.57.59-.12,0-.24-.04-.36-.12ZM177.74,417.58l-2.78-7.91-2.76,7.91h5.53Z"/>
    <path class="st0" d="M202.04,408.88c0,.14-.05.24-.15.3-.1.07-.25.1-.44.1h-6.3c.24.64.37,1.68.37,3.12v2.8h5.49c.04.08.06.16.06.24,0,.26-.2.39-.59.39h-4.97v6.36c0,.47-.17.71-.51.71-.08,0-.17-.03-.26-.08v-10.42c0-.91-.04-1.61-.11-2.13-.07-.51-.21-.97-.42-1.38l.12-.26h7.64c.04.08.06.16.06.24Z"/>
    <path class="st0" d="M215.79,422.42c0,.13-.05.24-.15.3-.1.07-.25.1-.44.1h-7.11l-.12-.26c.2-.41.34-.87.42-1.4.07-.53.11-1.24.11-2.15v-9.75c0-.47.17-.71.51-.71.08,0,.17.03.26.08v10.38c0,1.47-.12,2.53-.37,3.16h6.83c.04.08.06.16.06.24Z"/>
    <path class="st0" d="M229.81,422.42c0,.13-.05.24-.15.3-.1.07-.25.1-.44.1h-7.44l-.12-.26c.2-.41.34-.87.42-1.4.07-.53.11-1.24.11-2.15v-6.61c0-.91-.04-1.61-.11-2.13-.07-.51-.21-.97-.42-1.38l.12-.26h7.64c.04.08.06.16.06.24,0,.14-.05.24-.15.3-.1.07-.25.1-.44.1h-6.3c.24.64.37,1.68.37,3.12v2.59h5.82c.04.08.06.16.06.24,0,.26-.2.39-.59.39h-5.29v3.38c0,1.47-.12,2.53-.37,3.16h7.15c.04.08.06.16.06.24Z"/>
    <path class="st0" d="M238.32,422.36c-.7-.45-1.24-1.09-1.62-1.92-.38-.83-.57-1.8-.57-2.91v-8.27c0-.47.17-.71.51-.71.08,0,.17.03.26.08v8.57c0,1.68.34,2.96,1.01,3.85.67.89,1.63,1.34,2.88,1.34s2.2-.44,2.88-1.34c.67-.89,1.01-2.18,1.01-3.85v-7.95c0-.47.17-.71.51-.71.08,0,.17.03.26.08v8.9c0,1.11-.19,2.08-.57,2.91-.38.83-.92,1.47-1.62,1.92s-1.53.67-2.47.67-1.77-.22-2.47-.67Z"/>
    <path class="st0" d="M261.1,421.8c.28.46.53.76.76.89v.12c-.16.07-.33.1-.51.1-.19,0-.36-.07-.51-.2s-.35-.43-.6-.88c-.25-.45-.59-1.16-1.02-2.12-.5-1.12-.93-1.94-1.3-2.46-.37-.52-.8-.91-1.3-1.17-.32.03-.57.04-.73.04h-2.25v6.08c0,.47-.17.71-.51.71-.08,0-.17-.03-.26-.08v-10.42c0-.91-.04-1.63-.11-2.17-.07-.54-.21-1.01-.42-1.42l.12-.26c.54,0,1.09-.02,1.66-.06.18-.01.44-.03.8-.04.36-.01.68-.02.96-.02,1.51,0,2.72.34,3.62,1.02.9.68,1.35,1.61,1.35,2.77,0,.95-.29,1.74-.87,2.39-.58.65-1.39,1.09-2.41,1.32.39.23.75.6,1.08,1.09.33.5.73,1.27,1.21,2.31.54,1.18.95,1.99,1.23,2.45ZM253.65,412.41v3.08h2.57c1.18,0,2.11-.29,2.81-.88.7-.59,1.04-1.38,1.04-2.38s-.35-1.72-1.04-2.29c-.7-.57-1.63-.85-2.81-.85-.35,0-.68,0-.99.02-.31.01-.58.03-.81.04-.43.04-.82.06-1.16.06.26.67.39,1.74.39,3.2Z"/>
    <path class="st0" d="M282.98,409.33c1,.6,1.77,1.44,2.31,2.53.54,1.09.81,2.38.81,3.85s-.27,2.78-.81,3.88c-.54,1.1-1.31,1.95-2.31,2.54-1,.6-2.17.89-3.51.89-.4,0-1.01-.03-1.82-.08-.78-.06-1.35-.08-1.68-.08l-.12-.26c.2-.4.34-.88.42-1.42.07-.54.11-1.26.11-2.17v-6.61c0-.91-.04-1.63-.11-2.17-.07-.54-.21-1.01-.42-1.42l.12-.26c.54,0,1.1-.02,1.68-.06.2-.01.46-.03.76-.04.3-.01.66-.02,1.06-.02,1.34,0,2.51.3,3.51.89ZM282.58,421.56c.87-.55,1.54-1.32,2.02-2.32.47-1,.71-2.18.71-3.53s-.24-2.51-.71-3.51c-.47-1-1.15-1.77-2.02-2.31-.87-.54-1.89-.81-3.07-.81-.34,0-.65,0-.93.02-.28.01-.53.03-.75.04-.38.04-.74.06-1.07.06.26.67.39,1.74.39,3.2v6.61c0,1.49-.13,2.57-.39,3.24.34,0,.7.02,1.07.06.22.01.47.03.75.04s.59.02.93.02c1.18,0,2.2-.27,3.07-.82Z"/>
    <path class="st0" d="M300.61,422.42c0,.13-.05.24-.15.3-.1.07-.25.1-.44.1h-7.44l-.12-.26c.2-.41.34-.87.42-1.4.07-.53.11-1.24.11-2.15v-6.61c0-.91-.04-1.61-.11-2.13-.07-.51-.21-.97-.42-1.38l.12-.26h7.64c.04.08.06.16.06.24,0,.14-.05.24-.15.3-.1.07-.25.1-.44.1h-6.3c.24.64.37,1.68.37,3.12v2.59h5.82c.04.08.06.16.06.24,0,.26-.2.39-.59.39h-5.29v3.38c0,1.47-.12,2.53-.37,3.16h7.15c.04.08.06.16.06.24Z"/>
    <path class="st0" d="M305.92,409.27c-.03-.11-.04-.18-.04-.22,0-.15.05-.27.15-.35.1-.09.23-.13.39-.13l4.54,12.59,4.4-12.16c.09-.28.27-.43.53-.43.13,0,.26.03.36.08l-5.13,14.19h-.32l-4.88-13.56Z"/>
    <path class="st0" d="M322.67,422.83v-13.56c0-.47.17-.71.51-.71.08,0,.17.03.26.08v13.56c0,.47-.17.71-.51.71-.08,0-.17-.03-.26-.08Z"/>
    <path class="st0" d="M338.76,422.42c0,.13-.05.24-.15.3-.1.07-.25.1-.44.1h-7.44l-.12-.26c.2-.41.34-.87.42-1.4.07-.53.11-1.24.11-2.15v-6.61c0-.91-.04-1.61-.11-2.13-.07-.51-.21-.97-.42-1.38l.12-.26h7.64c.04.08.06.16.06.24,0,.14-.05.24-.15.3-.1.07-.25.1-.44.1h-6.3c.24.64.37,1.68.37,3.12v2.59h5.82c.04.08.06.16.06.24,0,.26-.2.39-.59.39h-5.29v3.38c0,1.47-.12,2.53-.37,3.16h7.15c.04.08.06.16.06.24Z"/>
    <path class="st0" d="M345.2,422.83v-13.46c0-.54.22-.81.67-.81.12,0,.24.03.34.08l7.78,13.11v-12.49c0-.47.17-.71.51-.71.08,0,.17.03.26.08v13.46c0,.54-.22.81-.67.81-.12,0-.24-.03-.34-.08l-7.78-13.11v12.49c0,.47-.17.71-.51.71-.08,0-.17-.03-.26-.08Z"/>
    <path class="st0" d="M370.22,408.88c0,.14-.05.24-.15.3-.1.07-.25.1-.44.1h-3.61v12.91c0,.47-.17.71-.51.71-.08,0-.17-.03-.26-.08v-13.54h-4.14c-.04-.08-.06-.16-.06-.24,0-.13.05-.24.15-.3.1-.07.25-.1.44-.1h8.51c.04.08.06.16.06.24Z"/>
    <path class="st0" d="M397.38,408.9c-.18.27-.29.55-.35.85-.06.3-.09.73-.09,1.3v11.15c0,.47-.17.71-.51.71-.08,0-.17-.03-.26-.08v-11.78c0-.64.02-1.09.06-1.36-.08.16-.29.64-.63,1.42l-4.66,10.3h-.32l-5.23-11.55v12.34c0,.47-.17.71-.51.71-.08,0-.17-.03-.26-.08v-13.46c0-.54.22-.81.67-.81.12,0,.24.03.34.08l5.15,11.47,4.84-10.78c.13-.3.26-.5.39-.61s.29-.16.51-.16c.11,0,.23.01.37.04.13.03.26.04.39.04l.12.26Z"/>
    <path class="st0" d="M412.13,422.42c0,.13-.05.24-.15.3-.1.07-.25.1-.44.1h-7.44l-.12-.26c.2-.41.34-.87.42-1.4.07-.53.11-1.24.11-2.15v-6.61c0-.91-.04-1.61-.11-2.13-.07-.51-.21-.97-.42-1.38l.12-.26h7.64c.04.08.06.16.06.24,0,.14-.05.24-.15.3-.1.07-.25.1-.44.1h-6.3c.24.64.37,1.68.37,3.12v2.59h5.82c.04.08.06.16.06.24,0,.26-.2.39-.59.39h-5.29v3.38c0,1.47-.12,2.53-.37,3.16h7.15c.04.08.06.16.06.24Z"/>
    <path class="st0" d="M420,422.68c-.7-.24-1.26-.51-1.66-.81s-.61-.54-.61-.7c0-.24.13-.36.41-.36,1,1.07,2.37,1.6,4.11,1.6,1.26,0,2.21-.27,2.86-.81s.97-1.31.97-2.31c0-.6-.13-1.11-.39-1.54-.26-.43-.68-.83-1.26-1.19s-1.37-.71-2.37-1.04c-1.41-.49-2.4-1.02-2.98-1.6-.58-.58-.87-1.32-.87-2.21,0-1.05.34-1.86,1.01-2.42s1.63-.84,2.88-.84c.81,0,1.55.12,2.23.35.68.24,1.21.51,1.6.81.39.3.59.54.59.7,0,.24-.13.37-.4.37-.49-.51-1.06-.91-1.72-1.19s-1.39-.42-2.19-.42c-1.03,0-1.82.23-2.38.69-.56.46-.84,1.09-.84,1.91,0,.72.27,1.31.81,1.79.54.48,1.47.96,2.8,1.43,1.05.38,1.89.77,2.5,1.18s1.06.85,1.34,1.35.42,1.09.42,1.77c0,1.23-.39,2.18-1.16,2.85s-1.87,1-3.3,1c-.89,0-1.69-.12-2.39-.35Z"/>
    <path class="st0" d="M434.92,422.68c-.7-.24-1.26-.51-1.66-.81s-.61-.54-.61-.7c0-.24.13-.36.41-.36,1,1.07,2.37,1.6,4.11,1.6,1.26,0,2.21-.27,2.86-.81s.97-1.31.97-2.31c0-.6-.13-1.11-.39-1.54-.26-.43-.68-.83-1.26-1.19s-1.37-.71-2.37-1.04c-1.41-.49-2.4-1.02-2.98-1.6-.58-.58-.87-1.32-.87-2.21,0-1.05.34-1.86,1.01-2.42s1.63-.84,2.88-.84c.81,0,1.55.12,2.23.35.68.24,1.21.51,1.6.81.39.3.59.54.59.7,0,.24-.13.37-.4.37-.49-.51-1.06-.91-1.72-1.19s-1.39-.42-2.19-.42c-1.03,0-1.82.23-2.38.69-.56.46-.84,1.09-.84,1.91,0,.72.27,1.31.81,1.79.54.48,1.47.96,2.8,1.43,1.05.38,1.89.77,2.5,1.18s1.06.85,1.34,1.35.42,1.09.42,1.77c0,1.23-.39,2.18-1.16,2.85s-1.87,1-3.3,1c-.89,0-1.69-.12-2.39-.35Z"/>
    <path class="st0" d="M446.51,422.83l4.76-13.6c.09-.26.2-.44.3-.55.11-.11.24-.16.4-.16.11,0,.21.02.3.06l4.76,13.62c.04.12.06.23.06.32,0,.28-.19.43-.57.43l-1.66-4.72h-5.98l-1.46,4.14c-.13.39-.32.59-.57.59-.12,0-.24-.04-.36-.12ZM454.66,417.58l-2.78-7.91-2.76,7.91h5.53Z"/>
    <path class="st0" d="M464.76,422.14c-.95-.59-1.69-1.44-2.21-2.54-.52-1.1-.78-2.39-.78-3.86s.27-2.76.8-3.86,1.29-1.95,2.28-2.54c.99-.59,2.15-.89,3.49-.89.77,0,1.48.12,2.13.35.65.24,1.17.51,1.56.81.39.3.59.54.59.7,0,.24-.13.37-.41.37-1-1.07-2.34-1.6-4.03-1.6-1.15,0-2.14.27-2.99.81-.84.54-1.49,1.32-1.95,2.32-.45,1.01-.68,2.19-.68,3.54s.22,2.53.67,3.53c.45,1,1.09,1.77,1.92,2.32.83.55,1.8.82,2.91.82,1.45,0,2.54-.5,3.29-1.49.75-.99,1.12-2.48,1.12-4.47h-4.4c-.04-.08-.06-.16-.06-.24,0-.26.2-.39.59-.39h4.58c.05.2.08.48.08.83,0,2.07-.45,3.65-1.36,4.74-.91,1.1-2.19,1.64-3.85,1.64-1.24,0-2.34-.3-3.29-.89Z"/>
    <path class="st0" d="M487.78,422.42c0,.13-.05.24-.15.3-.1.07-.25.1-.44.1h-7.44l-.12-.26c.2-.41.34-.87.42-1.4.07-.53.11-1.24.11-2.15v-6.61c0-.91-.04-1.61-.11-2.13-.07-.51-.21-.97-.42-1.38l.12-.26h7.64c.04.08.06.16.06.24,0,.14-.05.24-.15.3-.1.07-.25.1-.44.1h-6.3c.24.64.37,1.68.37,3.12v2.59h5.82c.04.08.06.16.06.24,0,.26-.2.39-.59.39h-5.29v3.38c0,1.47-.12,2.53-.37,3.16h7.15c.04.08.06.16.06.24Z"/>
  </g>
  <g>
    <path class="st2" d="M156.16,119.85"/>
    <path class="st1" d="M356.59,163.14c.18-1.28.96-2.25,1.58-3.33,1.98-3.11,4.34-5.96,7.12-8.41,13.86-12.19,28.3-3.14,38.06,9.15.12.15.15.33.11.51-.72,4.84-4.97,8.34-9.31,9.97-8.68,3.24-18.38,2.86-27.08.06-3.73-1.4-9.64-3.55-10.47-7.94h0ZM356.79,163.12c1.66,7.21,17.68,7.95,23.77,8.05,4.35-.08,8.8-.47,12.9-1.95,3.98-1.42,7.73-4.15,8.76-8.42,0,0,.11.5.11.5-5.18-7.73-13.38-15.21-23.33-14.1-7.01.73-13.47,4.86-18.31,9.95-1.53,1.75-3.29,3.69-3.9,5.96h0Z"/>
    <path class="st1" d="M356.78,163.15c-.78,9.03,1.06,20.47,10.48,24.18,8.97,3.44,19.49,1.09,27.68-3.45,4.87-2.88,10.8-8.14,10.35-14.2,0,0,.22.39.22.39-8.21-8.88-18.56-14.98-30.84-15.58-3.97-.37-8.17.1-12.1.12,7.78-1.92,16.46-2.07,24.29.32,7.97,2.36,14.62,7.85,20.06,13.93.76,1.99-.09,4.05-.76,5.64-3.77,7.67-12.23,11.33-19.97,13.64-7.73,2.35-17.22,3.77-24.01-1.76-6.6-5.63-7.33-15.34-5.59-23.27.03-.12.22-.08.2.04h0Z"/>
    <path class="st1" d="M315.97,164.96c6.36-2.05,11.91-6.37,17.54-9.9,5.55-3.84,11.27-7.5,16.74-11.52,8.2-6.04,15.37-13.34,22.9-20.16,2.47-2.32,4.9-4.68,7.41-6.97l-.32.99c-1.12-8.05.65-16.16,3.96-23.46,1.14-2.37,2.37-4.99,3.98-6.94.04.03.06.08.04.12-.52,1.21-1.11,2.38-1.61,3.58-.94,2.3-1.94,4.94-2.58,7.34-1.7,6.07-2.55,12.71-1.69,18.94.07.37-.06.75-.32.99-9.91,9.35-20.75,17.58-31.33,26.13-7.12,6.06-14.53,11.9-22.79,16.39-2.97,1.58-6.14,3.21-9.37,4.19-.82.25-1.67.47-2.55.48-.05,0-.1-.04-.1-.1,0-.06.04-.1.1-.1h0Z"/>
    <path class="st1" d="M313.94,175.07s-.06.05-.13.06c-.02.01-.1,0-.14-.04-.03-.03-.06-.1-.06-.12.09-1.02.78-1.89,1.31-2.73,1.84-2.56,4.29-4.7,7.11-6.13,4.81-2.01,9.96-3.27,15.17-3.51,5.24.28,10.41,1.73,14.92,4.45,1.55.98,3.2,2.13,4.03,3.83.13.24.14.55.2.8.01.05-.02.11-.07.12-.07.02-.1-.03-.13-.08-.95-1.73-3.05-2.44-4.76-3.26-5.53-2.14-11.31-4.19-17.28-4.51-4.07-.27-8.02,1.29-11.26,3.63-3.26,2.04-6.58,4.62-9.05,7.34-.01.01.03,0,.05,0,.13-.04.2.11.1.18h0Z"/>
    <path class="st1" d="M356.69,163.23c-3.51.15-14.71.73-15.14-3.94,0-.25.12-.47.31-.61,3.64-2.87,7.14-5.92,10.65-8.96,7.11-6.01,14.14-12.15,20.74-18.73,4.07-4.28,8.72-7.89,13.89-10.77,0,0,.78-.43.78-.43.68-.47,1.99-.72,2.79-.81,6.99-.92,13.96-1.34,20.98-1.71,9.17-.44,18.97-.76,28.05-1.07-4.45,1.2-9.36,1.37-13.98,1.95-4.65.45-9.29.83-13.94,1.17-6.94.57-13.95.77-20.85,1.49-.93.15-1.42.11-2.23.56-2.64,1.34-5.72,3.11-8.26,4.69-9.88,7.25-17.85,16.69-26.81,24.98-3.47,3.14-7.08,6.13-10.88,8.88,0,0,.31-.61.31-.61.69,2.95,10.82,3.42,13.6,3.74.13,0,.12.2,0,.2h0Z"/>
    <path class="st1" d="M389.7,96.34c.07.06.03.19,0,.27-.02.08-.12.34-.15.43-1.74,5.1-4.85,11.8-1.66,16.83,0,0-.5-.25-.5-.25,4.13.61,8.27,1.14,12.45,1.09,10.34-.13,20.73-1.21,30.96-2.66,1.76-.15,4.84-.83,6.34-.67-3.84,1.54-8.11,2.48-12.21,3.37-6.18,1.27-12.56,1.58-18.85,1.25-6.26-.54-12.51-1.05-18.8-.93-.2,0-.37-.11-.5-.25-4.15-4.75-1.22-11.69,1.47-16.41.38-.66.84-1.31,1.26-1.95,0,0,.02-.04.01-.01,0,.03.03.07.05.07-.1-.06,0-.24.11-.17h0Z"/>
    <path class="st1" d="M231.31,246.73c-3.97,12.61-6.96,25.48-9.33,38.47-2.24,11.28-3.63,22.94-2.96,34.46,0,0,.29,4.94.29,4.94.02.29-.19.54-.47.58-3.54.77-7.03-1.77-7.5-5.35,0,0,2.2-17.37,2.2-17.37,1.9-16.66,4.82-33.22,5.97-49.94,0,0-.01-2.19-.01-2.19,0-.12.19-.14.2-.01.67,5.83.11,11.74-.23,17.56-1.3,17.07-3.84,36.02-6.6,51.92.52,2.76,2.92,4.75,5.8,4.29,0,0-.47.58-.47.58,0,0-.06-4.98-.06-4.98-.1-5.63.24-11.79.5-17.41.69-12.44,2.42-24.85,5.89-36.83,1.82-6.39,3.9-12.71,6.58-18.79.05-.11.23-.04.19.07h0Z"/>
    <path class="st1" d="M466.59,92.5c3.48,12.18-3.06,22.05-15.54,23.83-3.51.62-7.05.84-10.6.93-.11,0-.22-.04-.29-.12-2.96-2.91-4.78-7.32-3.68-11.5,2.79-11.15,20.14-19.65,30.11-13.13h0ZM466.43,92.62c-9.52-4.23-25.18,3.78-28.2,13.47-1.1,3.54.04,7.48,2.55,10.44l-.31-.14c3.49.21,7.03.04,10.42-.8,11.2-2.82,16.79-11.68,15.54-22.96h0Z"/>
    <path class="st1" d="M472.81,100.63c.53,10.74-7.84,19.56-18.41,20.39-2.23.33-4.71.31-6.93.38-4.65-1.29-9.75-4.75-9.39-10.19.29-5.15,3.49-9.52,7.29-12.75,7.98-6.19,20.34-4.76,27.43,2.17h0ZM472.63,100.72c-7.51-5.15-18.4-6.15-25.95-.61-4.17,3.34-8.39,8.87-6.86,14.48,1.02,3.34,4.9,5.38,7.74,6.2,2.16-.12,4.55-.28,6.65-.84.72-.18,1.46-.27,2.14-.56,9.05-2.79,14.8-9.25,16.28-18.67h0Z"/>
    <path class="st1" d="M416.11,61.37c-11.33.49-27.45,4.01-28.42,17.76-.29,4.16.71,8.32,2.22,12.19,0,0-.37-.35-.37-.35,21.51,4.78,27.22-11.41,26.57-29.59h0ZM416.25,61.23c1.46,8.31,1.54,17.53-3.39,24.86-5.08,7.61-15.62,8.89-23.63,5.95-.18-.05-.32-.18-.37-.35-3.23-10.56-3.18-22.98,8.44-28.05,5.91-2.62,12.6-3.28,18.95-2.4h0Z"/>
    <path class="st1" d="M423.38,65.3c.32.06.34.59.45.84.9,4.23.86,8.64-.08,12.88-2.02,9.77-10.5,15.62-19.65,17.91-4.43,1.22-8.98,1.92-13.56,2.26-.21.02-.41-.09-.51-.26-2.58-4.05-1.36-9.31.83-13.23,4.4-7.77,11.5-13.99,19.77-17.26,4.13-1.63,8.44-2.56,12.76-3.14h0ZM423.41,65.5c-12.21,1.75-24.4,10.84-30.89,21.14-2.03,3.5-3.41,7.86-1.48,11.67,0,0-.54-.3-.54-.3,8.88.2,18.49-1.93,24.96-8.31,6.23-6,10.12-15.68,7.95-24.19h0Z"/>
    <path class="st1" d="M244.58,194.98c-6.23,3.29-12.09,6.87-17.92,10.71-1.04.7-2.42,1.7-3.33,2.53-2.13,1.81-3.94,3.95-5.54,6.23-1.64,2.39-2.83,4.87-4.96,7.01-.64.69-1.98,1.25-2.73.31-.76-1.04-.51-2.3-.5-3.31.7-7.06,3.37-13.65,4.23-20.65,0-.11.18-.13.2,0,.37,2.84.01,5.7-.32,8.5-.49,4.72-2,9.47-2.1,14.15.01.08.06.17-.01.06-.03-.1-.38-.21-.46-.17,2.18-1.61,3.83-4.51,5.79-6.57,3.9-4.14,7.87-8.13,12.3-11.71,4.58-3.34,9.77-5.92,15.29-7.27.11-.03.17.14.07.19h0Z"/>
    <path class="st1" d="M323.61,121.05c-5.59,2.31-10.57,5.62-15.26,9.3-3.62,2.65-7.03,5.73-9.64,9.41-4.26,6.26-7.2,13.31-12.15,19.27-1.99,2.34-4.16,4.65-6.9,6.28-2.67,1.65-6.04,2.19-8.96,2.61,1.19-.9,2.94-1.2,4.28-1.81,4.88-1.86,8.16-6.15,11.29-10.18,3.23-4.18,5.93-8.73,9.08-12.97,2.27-3.02,4.74-5.99,7.21-8.86,3.38-4.18,7.49-7.81,12.31-10.25,2.73-1.41,5.63-2.57,8.69-2.99.11-.02.16.16.04.2h0Z"/>
    <path class="st1" d="M323.52,208.51c-13.63-9.91-38.77-14.48-55.48-13.39-2.78.08-5.48.38-8.14,1.2-2.55.65-5.58,2.08-8.18.72-2.67-2-3.67-5.17-4.47-8.2-.8-3.57-.75-7.47.95-10.81.92-1.91,1.66-3.92,2.88-5.74,2.53-4.03,7.91-4.09,12.19-4.37,2.04-.09,4.69.87,2.94,3.31-3.81,4.19-9.39,6.6-11.94,11.73.43-2.74,2.88-5.02,4.78-6.97,1.89-1.92,4.94-4.09,6.1-6.08-.49-.24-1.15-.22-1.87-.21-1.9.05-4.1.52-6.01.91-4.23.52-5.55,4.93-7.15,8.3-1.57,2.89-1.68,6.33-1.04,9.53.6,2.55,1.45,5.57,3.47,7.28.91.51,1.98.46,3.03.35,3.37-.52,6.83-1.69,10.32-1.59,0,0,2.09-.05,2.09-.05,0,0,4.18-.12,4.18-.12,12.55-.15,25.43.4,37.17,5.32,3.9,1.56,7.69,3.54,11.09,6.01,1.12.85,2.24,1.7,3.21,2.73.09.08-.05.23-.14.14h0Z"/>
    <path class="st1" d="M264.92,194.81c2.74-2.96,5.39-5.86,7.63-9.04,2.35-3.03,4.5-6.73,3.79-10.72,0,0,.41.37.41.37-2.1.19-4.59.29-6.33,1.43-.72.47-1.43,1.28-2.03,1.93-.72.88-1.2,2-1.78,3.12-1.53,3.08-3,6.39-5.14,9.18-.76.9-1.64,2.01-2.92,2.12-.11,0-.14-.17-.03-.2,1.87-1.03,2.53-3.77,3.44-5.63,1.87-4.29,3.16-9.47,7.52-12.06,2.35-1.28,4.86-.81,7.32-.72.19.01.34.17.34.36.03,2.08-.27,4.09-.77,6.09-.94,4.02-3.32,7.63-6.38,10.36-1.52,1.36-3.13,2.62-4.96,3.55-.1.05-.2-.08-.12-.16h0Z"/>
    <path class="st1" d="M268.9,176.78c-.53-.56-.92-.86-1.04-1.51.01-.27.1-.69-.09-.94-.36-.57-1.24-.13-1.73-.16-1.02.16-1.87-.18-2.75-.81-.07-.04-.08-.14-.03-.2,1.27-1.68,3.5-1.26,4.53.35.41.47,1.09.55,1.54.97.59.67.47,1.72-.23,2.32-.06.05-.15.04-.2-.02h0Z"/>
    <path class="st1" d="M262.93,159.2c3.17-.53,8.97-3,10.75,1.16.24.68.14,1.37.11,1.82-.21,2.01-.45,4.68-2.47,5.79-1.9,1.03-4.02,1.13-6.1,1.38-3.13.32-6.36.29-9.42-.73-3.02-.91-4.42-3.92-1.74-6.18,2.53-2.12,5.91-2.35,8.87-3.25h0ZM262.98,159.39c-2.82.79-5.58,2.37-7.58,4.43-3.72,3.75,10.08,4.52,12.06,4.5,2.1-.06,4.68-.74,4.71-3.25.08-.94-.02-1.94-.05-2.96-.02-.96-.02-1.4-.71-1.94-2.34-1.38-5.73-1.38-8.44-.8h0Z"/>
    <g>
      <path class="st1" d="M190.03,201.4c-2.98-6.64-3.98-13.87-4.47-21.06-1.05-7.1-2.7-14.12-3.34-21.29-.44-4.77-.74-9.55-.64-14.36,0-.11.18-.14.2-.02,1.73,7.03,2.7,14.1,3.23,21.28.46,4.75.3,9.58,1.19,14.29.99,4.67,2.34,9.26,2.99,14,.39,2.35.78,4.7,1.03,7.11.02.11-.15.16-.19.05h0Z"/>
      <path class="st1" d="M209.5,292.36c-2.61-6.33-3.48-13.12-4.02-19.88-.58-4.47-2-8.81-2.77-13.25-1.25-6.64-2.45-13.53-2.49-20.22,2.39,6.33,3.48,13.2,4.35,19.92.65,4.45.65,9.02,1.55,13.44,1.02,4.39,2.32,8.71,2.83,13.2.31,2.23.62,4.46.74,6.74.01.11-.16.15-.19.04h0Z"/>
      <path class="st1" d="M178.18,105.01c-5.53-10.35-7.08-22.18-8.16-33.7-2.06-17.21-5.64-34.64-3.21-52.01.32-1.93.79-3.83,1.44-5.66.03-.11.22-.07.19.05-1.7,10.99.1,23.37.49,34.47.57,7.68.57,15.43,1.73,23.06,1.3,7.58,3.15,15.05,4.72,22.58.87,3.73,1.74,7.48,2.98,11.12.05.11-.12.2-.18.09h0Z"/>
      <path class="st1" d="M140.53,12.84c2.83,2.88,4.15,6.9,5.34,10.67,3.54,11.49,2.37,23.61,4.25,35.37,1.9,15.68,3.43,31.62,1.43,47.37-.01.12-.2.11-.2-.02,0-3.35-.35-8.41-.5-11.83-.36-6.77-.98-16.71-1.3-23.61-.59-11.81-.65-23.72-3-35.36-1.47-7.58-2.15-15.72-6.14-22.46-.09-.08.04-.24.13-.15h0Z"/>
      <path class="st1" d="M154.62,114.44c3.73,7.95,6.02,16.64,7.11,25.32,1.04,8.7,2.1,17.39,3.82,26,1.62,8.62,2.88,17.31,3.66,26.05.49,8.7,1.35,17.8-1.19,26.28-.04.11-.22.06-.19-.06.42-2.14.49-4.32.5-6.49-.27-14.9-2.47-30.74-3.87-45.63-.86-10.93-3.72-21.55-5.53-32.33-1.17-6.43-2.72-12.76-4.51-19.07-.04-.11.14-.19.19-.07h0Z"/>
      <path class="st1" d="M168.65,222.73c5.8,11.32,9.31,23.66,11.39,36.17,1,5.14,2.11,10.39,2.85,15.59.49,3.12.69,6.36.89,9.48.79,10.46,1.97,20.9,3.42,31.29.33,2.08.61,4.17,1.14,6.2.03.11-.15.18-.19.06-2.99-7.95-4.21-16.41-5.34-24.79-1.52-12.47-.36-25.42-3.4-37.7-1.7-7.11-5.11-17.06-7.17-24.17,0,0-3.77-12.06-3.77-12.06-.04-.11.13-.19.18-.08h0Z"/>
      <path class="st1" d="M140.47,10.88c2.21-1.56,5.03-1.98,7.61-2.64,6.64-1.37,13.49-.29,20.01,1.21,1.58.38,3.49,1.81,1.76,3.43-2.27,1.75-5.17,2.09-7.89,2.53-2.68.36-5.38.56-8.07.53-2.69-.05-5.4-.23-8.05-.88-1.59-.47-7.97-1.69-5.37-4.18h0ZM140.6,11.02c-2.3,2.46,4.03,2.68,5.41,2.72,5.25.06,10.51.16,15.74-.21,2.42-.29,5.3-.37,7.4-1.51,1.93-1.66-4.06-2.73-5.11-2.77-5.27-.4-10.54.34-15.82.25-2.54.1-5.47,0-7.62,1.52h0Z"/>
      <path class="st1" d="M175.65,104.55l2.03.16c.7-.03,1.38.45,1.9.88,3.73,2.28,2.31,6.83-2.21,5.55-6.42-1.46-13.52-.49-19.33,2.6-.99.5-1.78,1.31-2.97,1.46-3.54.05-4.19-5.08-1.86-7.06.55-.57,1.49-.93,2.19-1.14,6.47-2.18,13.46-2.95,20.25-2.45h0ZM175.62,104.75c-5.39-.31-10.57,2.08-15.76,3.19-1.54.41-3.18.84-4.72,1.31-.22.1-.43.21-.61.37-1.47,1.03-1.05,4.84,1.18,3.93,3.08-1.45,6.49-2.29,9.75-3.14,4.22-1.15,8.91-2.25,13.22-.78,2.14.5,2.32-1.57,1.27-2.94-.44-.44-.94-1.02-1.42-1.4-.84-.5-1.95-.37-2.9-.54h0Z"/>
      <path class="st1" d="M188.87,223.99c-2.13,2.09-4.92,2.64-7.76,2.5-1.85.14-3.67.94-5.56.78-2.91-.03-5.94-1.69-7.06-4.43-.04-.09.06-.18.15-.13,2.46,1.36,4.59,2.05,7.14,2.69,1.53.28,3.69.89,5.22.46,2.67-1.05,4.75-2.08,7.79-2.05.09,0,.14.12.08.19h0Z"/>
      <path class="st1" d="M166.13,174.72c-3.06-7.36-6.02-14.73-8.81-22.19-2.57-7.53-5.48-14.97-9.48-21.88-3.9-6.9-7.9-13.76-12.45-20.25-4.52-6.46-9.35-12.79-15.76-17.53-.1-.06,0-.23.1-.17,7.19,3.71,12.69,10.03,17.4,16.47,7.04,9.8,11.64,20.98,16.59,31.9,3.51,7.17,6.97,14.39,9.36,22.04,1.26,3.79,2.38,7.63,3.24,11.54.03.11-.15.17-.19.06h0Z"/>
      <path class="st1" d="M85.87,63.43c.05-.04.13-.05.2-.01,0,0,.08.03.08.03,0,0,.16.05.16.05.53.17,1.62.59,2.16.78,12.24,4.78,24.11,10.77,34.59,18.77,10.14,8.27,23.48,20.7,18.98,35.14-.12.39-.62.54-.95.29,0,0-16.12-11.23-16.12-11.23-2.92-2.09-9.47-6.31-12.08-8.61-6.22-5.46-11.66-11.91-15.76-19.11-2.07-3.55-4.08-7.06-6.52-10.34-.95-1.34-3.64-4.49-4.73-5.75h0ZM86.04,63.54c7.79,6.19,11.86,15.56,18.05,23.09,3.09,3.65,6.57,7.19,10.17,10.39,2.51,2.17,9.08,6.64,11.81,8.67,5.32,3.84,10.58,7.77,15.75,11.81,0,0-.95.29-.95.29,7.21-20.21-22.12-35.95-36.4-44.55-5.75-3.26-12-6.49-17.97-9.37,0,0-.3-.14-.3-.14l-.15-.07-.07-.03s-.05-.02-.01-.01c.03,0,.07-.03.06-.06h0Z"/>
      <path class="st1" d="M152.68,140.12c-13.92-8.93-29.32-15.36-45.18-19.9-.86-.2-5.27-1.25-6.05-1.41-.8-.15-2.86-.45-3.68-.58-6.54-1.11-13.19-1.19-19.78-1.15,0,0,.45-1.35.45-1.35,13.47,9.02,28.32,16.55,44.19,20.18,5.3,1.27,10.93,1.51,16.3,1.45-5.3,1.22-11.15.76-16.58.01-16.4-2.78-31.51-10.68-44.82-20.44-.62-.39-.29-1.42.45-1.36,6.58.32,13.4.92,19.88,2.05,13.15,2.03,26.3,5.27,38.14,11.51,5.95,3.03,11.67,6.54,16.78,10.83.1.08-.03.24-.12.16h0Z"/>
      <path class="st1" d="M157.34,150.18c-.14.29-.46.16-.67.08-2.31-1.19-4.89-3.25-7.6-2.18-.22.09-.44.03-.6-.12-1.75-1.41-4.09-2.11-6.37-2.53-4.64-.75-9.56-.07-14.14.88-11.87,2.4-22.83,8.44-32.63,15.42,0,0-.46-1.3-.46-1.3,4.8-.58,9.62-1.1,14.43-1.57,4.81-.5,9.63-.97,14.45-1.34,4.18-.41,10.28-.61,14.31-1.44,2.3-.47,4.55-1.24,6.47-2.58,1.95-1.3,3.47-3.19,4.56-5.34.02-.05.09-.07.13-.04-.5,2.3-2.23,4.56-4.11,6.16-3.89,3.18-9.15,3.97-13.95,4.53-7.21.88-14.44,1.49-21.68,2.02-4.82.38-9.64.73-14.47,1.03-.72.11-1.14-.93-.46-1.3,6.13-3.64,12.95-7.37,19.33-10.45,6.63-3.17,13.59-6.14,21.02-6.64,4.97-.24,10.42.19,14.36,3.66,0,0-.6-.12-.6-.12.83-.27,1.72-.31,2.54-.15,2.19.41,3.85,1.94,5.59,3.18.15.09.34.17.36.1,0-.1.26-.09.18.08h0Z"/>
      <path class="st1" d="M150.85,18.27c.83.76,1.31,1.7,1.34,2.78-.03.52-.25,1.07-.22,1.57.02.5.21.98.49,1.44.54.91.84,1.89.96,2.92.02,1.01-.11,2.13-.83,3.12-.05.07-.16.06-.2-.02-.81-1.47-1.25-2.73-1.17-4.31-.08-.97.46-2.07.12-3.03-.15-.48-.56-.9-.78-1.36-.22-.46-.24-.96-.24-1.47.03-.51.08-1.03.35-1.6.03-.07.13-.1.2-.04h0Z"/>
      <path class="st1" d="M155.99,17.25c1.4,2.9,1.38,6.03,1.09,9.13.25,3.06,1.54,5.97,1.7,9.06.15,2.04.12,4.07-.11,6.17,0,.06-.05.11-.11.1-1.63-2.78-2-5.98-2.11-9.09-.15-2.04.35-4.14,0-6.17-.89-2.99-1.51-6.07-.65-9.18.02-.09.16-.11.2-.02h0Z"/>
      <path class="st1" d="M167.03,116.3c1.8,2.85,2.17,6.12,2.23,9.39.94,4.2,2.98,8.2,2.7,12.63-.02,1.11-.1,2.25-.5,3.31-.04.09-.19.08-.2-.02-.89-3.12-1.78-6.14-2.02-9.37-.32-2.11-.03-4.34-.61-6.41-1.22-3.02-2.21-6.14-1.8-9.47,0-.09.15-.13.19-.04h0Z"/>
      <path class="st2" d="M172.14,117.65"/>
      <path class="st1" d="M185.72,233.24c1.28.98,2.17,2.3,2.61,3.81.18.76.17,1.58.37,2.31.77,2.17,2.35,4.06,2.62,6.43.18,1.55.12,3.18-.54,4.69-.04.09-.17.09-.2,0-.91-2.23-1.43-4.18-1.73-6.46-.29-1.44-.08-3.08-.76-4.43-.31-.68-.89-1.26-1.3-1.89-.76-1.35-1.16-2.78-1.25-4.36,0-.09.1-.15.18-.1h0Z"/>
    </g>
    <path class="st1" d="M248.86,221.79c-2.86,8.05-7.39,16.5-15.46,20.32-2.68,1.29-5.87,1.37-8.73,1.2-5.74-.2-11.51-.45-17.26-1.45-2.86-.49-5.7-1.29-8.42-2.24-2.67-1-6.36-.88-8.19-3.49-1.79-2.62-1.97-5.65-2.33-8.62-.28-2.89-.4-5.76-.45-8.64-.06-5.76.05-11.64,1.83-17.18.92-2.77,2.57-5.28,4.67-7.3,2.08-2,4.15-4.12,6.81-5.36,5.28-2.51,11.16-3.04,16.88-3.64,7.51-.64,15.61-.74,22.7,2.31,1.42.71,1.61,2.32-.09,2.78-3.43.57-6.9.03-10.27-.3-8.57-1.25-17.63-2.95-24.7-8.39-2.41-1.81-3.78-4.67-5.19-7.24-5.71-9.86-12.47-19.14-18.65-28.85-4.25-7.06-14.33-25.05-7.68-32.14.09-.09.23.05.14.14-6.06,7.01,4.68,24.55,8.86,31.16,6.35,9.5,13.35,18.64,19.13,28.67,1.38,2.41,2.45,4.92,4.74,6.64,6.72,5.06,15.38,6.88,23.61,8.15,3.22.35,6.53.89,9.67.46.11-.03-.08-.05-.14.36,0,.12.01.21.07.28-.32-.29-.76-.49-1.2-.67-9.34-3.31-19.7-2.69-29.41-1.4-2.81.44-5.6,1.08-8.14,2.32-2.6,1.19-4.63,3.24-6.69,5.17-6.46,6.08-6.12,15.79-5.82,24,.15,2.85.36,5.71.73,8.52.37,2.63.76,5.64,2.26,7.78,1.65,2.15,4.96,1.85,7.42,2.83,2.71.91,5.41,1.63,8.19,2.17,6.89,1.2,14.17,1.7,21.19,1.7,9.99-1.09,16.06-11.68,19.75-20.11.03-.12.23-.05.19.06h0Z"/>
    <path class="st1" d="M221.2,165.15c-11.56-8.33-23.22-17.25-31.17-29.29-1.89-3.01-4.02-5.87-6.33-8.57-2.3-2.72-4.84-5.21-7.25-7.89-1.48-1.75-3.53-4.07-2.28-6.51,2.83-3.21,11.08-1.61,14.82-.85,10.56,2.43,20.42,7.86,28.19,15.4,10.26,9.93,20.91,20.44,26.1,34.04,1.25,3.43,2.02,7.07,2.08,10.76-.15,1.32-2.2,1.08-2.9.79-4.23-1.96-6.61-6.41-8.74-10.29-6.76-13.66-8.3-29.34-7.38-44.36.39-5.05.83-10.07,2.07-15.01,2.6-9.85,7.92-18.74,14.38-26.51,2.47-2.9,5.1-5.69,8.15-8.01.96-.69,1.99-1.43,3.18-1.72,4.57-.47,7.49,4.7,9.55,8.31,14.09,23.92,17.43,56.66-.99,79.29-3.77,3.61-6.12-.62-4.65-4.33.27-.91,1.05-1.86,1.5-2.67,6.46-10.18,16.23-17.78,26.4-23.97,13.71-8.43,29.82-11.53,45.6-13.14.19-.03.36.11.39.3.46,3.66.01,7.32-.7,10.87-1.11,6.11-4.11,14.81-5.89,20.85-.79,2.58-1.44,5.24-2.44,7.77-2.96,7.6-7.11,14.71-11.96,21.26-3.26,4.35-6.94,8.53-11.46,11.63-6.92,3.86-16.4,7.78-24.31,5-.37-.13-1.03-.39-1.17-.9-.67-2.43,8.8-5.09,10.74-5.86,10.36-3.3,20.94-5.85,31.78-7.01,20.8-2.13,34.11,5.21,50.49,16.81,1.49,1.03,2.97,2.07,4.43,3.2,1.12.94,2.48,1.85,3.02,3.39.35,1.1,0,2.03-.03,3.05-.55,6.08-11.17,10.14-15.8,13-10.2,5.64-20.01,13-31.58,15.81-9.93,1.73-20.2.92-29.96-1.5-7.08-1.82-13.93-4.69-20.08-8.68-6.18-3.96-11.61-9.01-16.19-14.72-.63-.73.09-1.89,1-1.69,3.34.64,6.65,1.45,9.86,2.53,22.42,7.77,40.92,23.93,56.42,41.44,4.14,5.32,12.56,13.02,9.97,20.33-.68,1.8-2.78,3.18-4.59,3.27,0,0-2.54.35-2.54.35-3.39.47-6.71.69-10.07.9-6.75.33-13.48.61-20.23-.42-1.7-.27-3.49-.83-4.98-1.74-9.98-6.26-16.95-16.29-26.66-22.85-5.59-3.62-11.92-6.65-16.17-12.05-2.15-2.69-3.61-5.94-4.21-9.32-.81-4.76-1.65-24.32,5.4-24.2.29.04.57.08.84.24,1.14.93,1.51,2.24,2.05,3.49,2.3,6.34,3.94,12.83,6.84,18.81,2.77,6.11,8.02,10.52,13,14.83,7.07,5.82,14.67,11.12,22.96,15.05,3.76,1.66,7.78,3.23,11.91,3.57.06,0,.1.05.09.11-3.27.09-6.72-1.27-9.83-2.38-9.31-3.82-17.73-9.56-25.57-15.82-3.86-3.23-7.74-6.53-10.81-10.57-4.79-6.97-6.65-15.49-9.57-23.22-.48-1-.84-2.46-1.77-3.01-5.89-.42-5.13,18.94-4.33,22.87,1.7,10.42,11.75,15.41,19.95,20.4,5.67,3.73,10.28,8.68,15.22,13.23,3.64,3.37,7.23,6.86,11.48,9.39,0,0,1.05.56,1.05.56.36.13.69.29,1.06.4,3.93,1.1,8.08,1.12,12.19,1.16,6.6-.04,13.34-.42,19.87-1.29,0,0,2.42-.35,2.42-.35,2.32-.15,3.66-1.93,3.57-4.23-.12-3.13-1.93-5.95-3.8-8.46-1.97-2.65-4.1-5.22-6.27-7.73-10.95-12.48-23.38-23.82-37.62-32.39-5.67-3.41-11.67-6.28-17.94-8.39-3.13-1.05-6.33-1.83-9.56-2.44,0,0,1-1.69,1-1.69,13.18,17.04,34.99,25.85,56.28,25.06,7.17.03,13.92-2.21,20.21-5.59,6.36-3.26,12.42-7.17,18.75-10.73,3.2-1.76,6.38-3.36,9.37-5.29,2.09-1.41,4.36-2.82,5.29-5.15.3-.62.27-1.78.39-2.45.31-1.66-1.34-2.47-2.43-3.48-17.45-12.76-31.03-22.18-53.66-19.98-10.68,1.07-21.28,3.56-31.53,6.75-2.55.83-5.09,1.7-7.52,2.82-.88.45-1.91.87-2.48,1.57-.02.03.02-.03-.01-.1-.02-.03,0-.05-.03-.06.06.06.32.14.51.23,7.52,2.66,16.64-1.12,23.3-4.78,4.44-3.02,8.02-7.08,11.25-11.34,6.45-8.61,11.67-18.23,14.39-28.68,1.76-5.99,4.81-14.67,5.96-20.75.72-3.5,1.17-7.1.74-10.62l.39.3c-15.76,1.5-31.72,4.58-45.34,13.03-10.08,6.18-19.71,13.72-26.08,23.81-1.08,1.6-2.03,3.32-1.72,5.26.35,2.45,2.17,2.11,3.59.67,2.31-2.41,3.89-5.7,5.56-8.62,0,0,.63-1.34.63-1.34,5.22-10.64,6.95-22.82,5.52-34.56-1.71-13.61-6.81-27-14.65-38.24-1.1-1.39-2.74-2.5-4.49-2.61-2,.57-3.93,2.4-5.51,3.83-8.77,8.56-15.83,19.37-19.03,31.26-1.18,4.77-1.61,9.78-1.98,14.69-.94,16.83.75,35.71,10.96,49.67.95,1.15,1.96,2.23,3.2,2.98.46.32,1.43.66,1.83.39,0,0-.39.71-.39.71-.05-3.48-.76-6.94-1.95-10.23-3.69-10.01-10.79-18.31-18.02-26-4.95-5.06-9.84-10.34-15.74-14.29-5.85-3.97-12.41-6.93-19.3-8.56-3.51-.87-17.37-3.15-13.11,3.52,2.55,3.62,5.99,6.54,8.76,10.04,2.3,2.76,4.42,5.68,6.29,8.75,7.71,12.01,19.27,21.1,30.65,29.52.12.07-.01.24-.11.16h0Z"/>
    <path class="st1" d="M193.96,237.34c.66.32,1.12.69,1.1,1.37-.06.29-.3.64-.29.91,0,.28.17.51.42.73,1.04.88,1.24,2.27.09,3.31-.06.05-.14.05-.19,0-.87-.74-1.27-1.22-1.16-2.18-.05-.5.52-1.2.22-1.69-.13-.24-.51-.42-.7-.65-.36-.58-.15-1.19.32-1.76.05-.05.13-.07.2-.04h0Z"/>
  </g>
</svg>