<?xml version="1.0" encoding="UTF-8"?>
<svg id="Calque_1" xmlns="http://www.w3.org/2000/svg" version="1.1" viewBox="0 0 610.29 159.64">
  <!-- Generator: Adobe Illustrator 30.6.0, SVG Export Plug-In . SVG Version: 2.1.4 Build 109)  -->
  <defs>
    <style>
      .st0 {
        fill: none;
      }

      .st1 {
        fill: #1d1d1b;
      }
    </style>
  </defs>
  <g>
    <path d="M234.55,29.25h-.19c-.04-1.11-.46-2.06-1.25-2.85-.79-.79-1.74-1.18-2.85-1.18h-.83v-.64h5.12v4.67ZM234.55,64.7v4.67h-5.12v-.64h.83c1.11,0,2.06-.39,2.85-1.18.79-.79,1.21-1.74,1.25-2.85h.19ZM238.51,24.58v44.8h-4.16V24.58h4.16ZM238.32,29.25v-4.67h5.12v.64h-.83c-1.11,0-2.06.4-2.85,1.18-.79.79-1.21,1.74-1.25,2.85h-.19ZM255.79,67.39v1.98h-17.47v-1.98h17.47ZM259.7,59.01l-3.71,10.37h-10.62l2.3-1.98c2.26,0,4.11-.35,5.54-1.06,1.43-.7,2.59-1.7,3.49-2.98.9-1.28,1.68-2.73,2.37-4.35h.64Z"/>
    <path d="M269.55,29.25h-.19c0-1.11-.41-2.06-1.22-2.85-.81-.79-1.77-1.18-2.88-1.18h-.77l-.06-.64h5.12v4.67ZM269.55,64.7v4.67h-5.12v-.64h.83c1.11,0,2.06-.39,2.85-1.18.79-.79,1.21-1.74,1.25-2.85h.19ZM273.52,24.58v44.8h-4.16V24.58h4.16ZM290.8,24.58v1.98h-17.47v-1.98h17.47ZM288.05,46.34v1.92h-14.72v-1.92h14.72ZM290.8,67.39v1.98h-17.47v-1.98h17.47ZM294.71,59.01l-3.71,10.37h-10.62l2.3-1.98c2.26,0,4.11-.35,5.54-1.06,1.43-.7,2.59-1.7,3.49-2.98.9-1.28,1.68-2.73,2.37-4.35h.64ZM290.8,23.42v1.86l-7.81-.7c.94,0,1.93-.06,2.98-.19,1.04-.13,2.02-.28,2.91-.45.9-.17,1.54-.34,1.92-.51ZM288.05,42.24v4.22h-3.71v-.13c.85-.04,1.58-.37,2.18-.99.6-.62.9-1.35.9-2.21v-.9h.64ZM288.05,48.13v4.22h-.64v-.96c0-.85-.3-1.59-.9-2.21-.6-.62-1.32-.93-2.18-.93v-.13h3.71ZM290.8,26.37v5.12h-.64v-1.15c0-1.02-.36-1.91-1.09-2.66-.73-.75-1.62-1.14-2.69-1.18v-.13h4.42Z"/>
    <path d="M313.59,23.68c.68,0,1.42.04,2.21.13.79.09,1.56.2,2.3.35.75.15,1.43.3,2.05.45.62.15,1.1.31,1.44.48v7.1h-.58c0-2.05-.7-3.66-2.11-4.83-1.41-1.17-3.11-1.76-5.12-1.76-2.35,0-4.25.74-5.7,2.21-1.45,1.47-2.18,3.19-2.18,5.15,0,.81.18,1.76.54,2.85.36,1.09,1.03,2.1,2.02,3.04l12.61,11.65c1.28,1.19,2.13,2.48,2.56,3.84.43,1.37.64,2.69.64,3.97,0,3.54-1.08,6.42-3.23,8.64-2.16,2.22-5.07,3.33-8.74,3.33-1.02,0-2.23-.11-3.62-.32-1.39-.21-2.73-.59-4.03-1.12-1.3-.53-2.38-1.23-3.23-2.08-.13-.68-.19-1.54-.19-2.56s.08-2.1.26-3.23c.17-1.13.41-2.17.7-3.1h.58c-.21,2.18.06,4.08.83,5.7.77,1.62,1.89,2.85,3.36,3.68,1.47.83,3.15,1.21,5.02,1.12,2.35-.13,4.36-.95,6.05-2.46,1.68-1.51,2.53-3.55,2.53-6.11,0-1.24-.21-2.36-.64-3.36-.43-1-1.05-1.87-1.86-2.59l-12.29-11.39c-1.28-1.19-2.18-2.51-2.69-3.94-.51-1.43-.77-2.76-.77-4,0-1.79.43-3.52,1.28-5.18s2.12-3.02,3.81-4.06c1.68-1.04,3.74-1.57,6.18-1.57ZM321.59,24.32v1.34h-4.86v-1.34h4.86Z"/>
    <path d="M389.36,50.69l-.77,10.05c-1.11,1.83-2.51,3.47-4.19,4.9-1.69,1.43-3.67,2.56-5.95,3.39-2.28.83-4.9,1.25-7.84,1.25-4.44-.04-8.38-1.02-11.84-2.94s-6.16-4.62-8.1-8.1c-1.94-3.48-2.91-7.58-2.91-12.32s.96-8.71,2.88-12.19c1.92-3.48,4.62-6.19,8.1-8.13,3.48-1.94,7.56-2.91,12.26-2.91,3.16,0,6,.42,8.54,1.25,2.54.83,4.75,1.87,6.62,3.1l1.28,9.02h-.58c-.94-3.75-2.86-6.6-5.76-8.54-2.9-1.94-6.27-2.91-10.11-2.91s-7.01.89-9.76,2.66c-2.75,1.77-4.89,4.25-6.4,7.42-1.51,3.18-2.27,6.9-2.27,11.17s.76,8,2.27,11.2c1.51,3.2,3.63,5.7,6.34,7.49,2.71,1.79,5.86,2.73,9.44,2.82,3.03,0,5.83-.56,8.42-1.7,2.58-1.13,4.75-2.99,6.5-5.57,1.75-2.58,2.86-6.05,3.33-10.4h.51Z"/>
    <path d="M401.52,29.25h-.19c-.04-1.11-.46-2.06-1.25-2.85-.79-.79-1.74-1.18-2.85-1.18h-.83v-.64h5.12v4.67ZM401.52,64.7v4.67h-5.12v-.64h.83c1.11,0,2.06-.39,2.85-1.18.79-.79,1.21-1.74,1.25-2.85h.19ZM405.49,24.58v44.8h-4.16V24.58h4.16ZM432.24,46.27v1.92h-27.39v-1.92h27.39ZM405.3,29.25v-4.67h5.12v.64h-.83c-1.11,0-2.06.4-2.85,1.18s-1.21,1.74-1.25,2.85h-.19ZM405.3,64.7h.19c.04,1.11.46,2.06,1.25,2.85.79.79,1.74,1.18,2.85,1.18h.83v.64h-5.12v-4.67ZM431.86,29.25h-.19c0-1.11-.41-2.06-1.22-2.85-.81-.79-1.77-1.18-2.88-1.18h-.83v-.64h5.12v4.67ZM431.86,64.7v4.67h-5.12v-.64h.83c1.11,0,2.07-.39,2.88-1.18.81-.79,1.22-1.74,1.22-2.85h.19ZM435.82,24.58v44.8h-4.16V24.58h4.16ZM435.63,29.25v-4.67h5.12v.64h-.83c-1.11,0-2.06.4-2.85,1.18s-1.21,1.74-1.25,2.85h-.19ZM435.63,64.7h.19c.04,1.11.46,2.06,1.25,2.85.79.79,1.74,1.18,2.85,1.18h.83v.64h-5.12v-4.67Z"/>
    <path d="M453.81,64.7c-.3.85-.34,1.58-.13,2.18.21.6.57,1.06,1.06,1.38.49.32.99.48,1.5.48h.58v.64h-12.86v-.64h.58c.98,0,1.99-.31,3.04-.93,1.05-.62,1.91-1.65,2.59-3.1h3.65ZM467.57,23.68l.58,4.48-16.06,41.02h-3.84l16.38-38.91c.47-1.07.86-1.98,1.18-2.75.32-.77.6-1.51.83-2.24.23-.72.35-1.26.35-1.6h.58ZM476.59,51.9v1.92h-20.03v-1.92h20.03ZM467.57,23.68l18.94,45.31h-5.44l-14.78-39.23,1.28-6.08ZM479.47,64.7h5.25c.64,1.45,1.49,2.49,2.56,3.1,1.07.62,2.09.93,3.07.93h.51v.64h-14.4v-.64h.58c.81,0,1.54-.35,2.18-1.06.64-.7.72-1.7.26-2.98Z"/>
    <path d="M498.35,64.83v4.54h-5.31v-.64h1.22c1.07,0,1.98-.38,2.75-1.15.77-.77,1.15-1.69,1.15-2.75h.19ZM498.22,23.62l2.82,3.58.06,42.18h-2.94V31.62c0-2.18-.19-4.84-.58-8h.64ZM498.22,23.62l37.18,39.68.58,6.98-37.18-39.62-.58-7.04ZM501.1,64.83c0,1.07.38,1.98,1.15,2.75.77.77,1.69,1.15,2.75,1.15h1.22v.64h-5.31v-4.54h.19ZM527.92,24.58h5.31v4.54h-.13c-.04-1.11-.44-2.04-1.18-2.78-.75-.75-1.67-1.12-2.78-1.12h-1.22v-.64ZM535.98,24.58v37.5c0,1.37.04,2.68.13,3.94.08,1.26.23,2.68.45,4.26h-.58l-2.88-3.39V24.58h2.88ZM541.1,24.58v.64h-1.15c-1.07,0-1.98.37-2.75,1.12-.77.75-1.17,1.67-1.22,2.78h-.19v-4.54h5.31Z"/>
    <path d="M545.26,23.36c.43.17,1.08.34,1.95.51.87.17,1.84.32,2.91.45s2.05.19,2.94.19l-7.81.7v-1.86ZM582.32,24.51v1.92h-37.06v-1.92h37.06ZM549.68,26.24v.19c-1.07.04-1.96.43-2.69,1.15-.73.73-1.09,1.62-1.09,2.69v1.09l-.64.06v-5.18h4.42ZM561.9,64.7v4.67h-5.12v-.64h.83c1.11,0,2.06-.39,2.85-1.18.79-.79,1.2-1.74,1.25-2.85h.19ZM565.87,24.77v44.61h-4.16V24.77h4.16ZM565.68,64.7h.19c.04,1.11.46,2.06,1.25,2.85.79.79,1.74,1.18,2.85,1.18h.83v.64h-5.12v-4.67ZM582.32,23.36v1.86l-7.81-.7c.94,0,1.93-.06,2.98-.19,1.04-.13,2.02-.28,2.91-.45.9-.17,1.54-.34,1.92-.51ZM582.32,26.24v5.18l-.64-.06v-1.09c0-1.07-.37-1.96-1.12-2.69-.75-.73-1.63-1.11-2.66-1.15v-.19h4.42Z"/>
    <path d="M599.6,23.68c.68,0,1.42.04,2.21.13.79.09,1.56.2,2.3.35.75.15,1.43.3,2.05.45.62.15,1.1.31,1.44.48v7.1h-.58c0-2.05-.7-3.66-2.11-4.83-1.41-1.17-3.12-1.76-5.12-1.76-2.35,0-4.25.74-5.7,2.21-1.45,1.47-2.18,3.19-2.18,5.15,0,.81.18,1.76.54,2.85s1.03,2.1,2.02,3.04l12.61,11.65c1.28,1.19,2.13,2.48,2.56,3.84.43,1.37.64,2.69.64,3.97,0,3.54-1.08,6.42-3.23,8.64-2.15,2.22-5.07,3.33-8.74,3.33-1.02,0-2.23-.11-3.62-.32-1.39-.21-2.73-.59-4.03-1.12-1.3-.53-2.38-1.23-3.23-2.08-.13-.68-.19-1.54-.19-2.56s.08-2.1.26-3.23c.17-1.13.41-2.17.7-3.1h.58c-.21,2.18.06,4.08.83,5.7.77,1.62,1.89,2.85,3.36,3.68,1.47.83,3.15,1.21,5.02,1.12,2.35-.13,4.36-.95,6.05-2.46,1.69-1.51,2.53-3.55,2.53-6.11,0-1.24-.21-2.36-.64-3.36-.43-1-1.05-1.87-1.86-2.59l-12.29-11.39c-1.28-1.19-2.18-2.51-2.69-3.94-.51-1.43-.77-2.76-.77-4,0-1.79.43-3.52,1.28-5.18.85-1.66,2.12-3.02,3.81-4.06,1.69-1.04,3.74-1.57,6.18-1.57ZM607.6,24.32v1.34h-4.86v-1.34h4.86Z"/>
    <path d="M234.55,98.25h-.19c0-1.11-.41-2.06-1.22-2.85-.81-.79-1.77-1.18-2.88-1.18h-.77l-.06-.64h5.12v4.67ZM234.55,133.71v4.67h-5.12v-.64h.83c1.11,0,2.06-.39,2.85-1.18s1.21-1.74,1.25-2.85h.19ZM238.51,93.58v44.8h-4.16v-44.8h4.16ZM251.12,93.58c4.56,0,8.56.93,12,2.78,3.43,1.86,6.12,4.47,8.06,7.84,1.94,3.37,2.91,7.3,2.91,11.78s-.97,8.4-2.91,11.74c-1.94,3.35-4.63,5.96-8.06,7.84-3.43,1.88-7.43,2.82-12,2.82h-13.7l-.06-1.92h13.76c3.67,0,6.86-.85,9.57-2.56,2.71-1.71,4.82-4.1,6.34-7.17,1.51-3.07,2.27-6.66,2.27-10.75s-.76-7.68-2.27-10.75c-1.52-3.07-3.64-5.46-6.37-7.17-2.73-1.71-5.91-2.56-9.54-2.56h-14.4v-1.92h14.4Z"/>
    <path d="M284.91,98.25h-.19c0-1.11-.41-2.06-1.22-2.85-.81-.79-1.77-1.18-2.88-1.18h-.77l-.06-.64h5.12v4.67ZM284.91,133.71v4.67h-5.12v-.64h.83c1.11,0,2.06-.39,2.85-1.18s1.21-1.74,1.25-2.85h.19ZM288.88,93.58v44.8h-4.16v-44.8h4.16ZM306.16,93.58v1.98h-17.47v-1.98h17.47ZM303.41,115.34v1.92h-14.72v-1.92h14.72ZM306.16,136.39v1.98h-17.47v-1.98h17.47ZM310.07,128.01l-3.71,10.37h-10.62l2.3-1.98c2.26,0,4.11-.35,5.54-1.06,1.43-.7,2.59-1.7,3.49-2.98.9-1.28,1.68-2.73,2.37-4.35h.64ZM306.16,92.43v1.86l-7.81-.7c.94,0,1.93-.06,2.98-.19,1.04-.13,2.02-.28,2.91-.45.9-.17,1.54-.34,1.92-.51ZM303.41,111.24v4.22h-3.71v-.13c.85-.04,1.58-.37,2.18-.99.6-.62.9-1.35.9-2.21v-.9h.64ZM303.41,117.13v4.22h-.64v-.96c0-.85-.3-1.59-.9-2.21-.6-.62-1.32-.93-2.18-.93v-.13h3.71ZM306.16,95.37v5.12h-.64v-1.15c0-1.02-.36-1.91-1.09-2.66-.73-.75-1.62-1.14-2.69-1.18v-.13h4.42Z"/>
    <path d="M328.95,92.68c.68,0,1.42.04,2.21.13.79.09,1.56.2,2.3.35.75.15,1.43.3,2.05.45.62.15,1.1.31,1.44.48v7.1h-.58c0-2.05-.7-3.66-2.11-4.83-1.41-1.17-3.11-1.76-5.12-1.76-2.35,0-4.25.74-5.7,2.21-1.45,1.47-2.18,3.19-2.18,5.15,0,.81.18,1.76.54,2.85.36,1.09,1.03,2.1,2.02,3.04l12.61,11.65c1.28,1.19,2.13,2.47,2.56,3.84.43,1.37.64,2.69.64,3.97,0,3.54-1.08,6.42-3.23,8.64-2.16,2.22-5.07,3.33-8.74,3.33-1.02,0-2.23-.11-3.62-.32-1.39-.21-2.73-.59-4.03-1.12-1.3-.53-2.38-1.23-3.23-2.08-.13-.68-.19-1.54-.19-2.56s.08-2.1.26-3.23c.17-1.13.41-2.17.7-3.1h.58c-.21,2.18.06,4.08.83,5.7.77,1.62,1.89,2.85,3.36,3.68,1.47.83,3.15,1.21,5.02,1.12,2.35-.13,4.36-.95,6.05-2.46,1.68-1.51,2.53-3.55,2.53-6.11,0-1.24-.21-2.36-.64-3.36-.43-1-1.05-1.87-1.86-2.59l-12.29-11.39c-1.28-1.19-2.18-2.51-2.69-3.94s-.77-2.76-.77-4c0-1.79.43-3.52,1.28-5.18s2.12-3.02,3.81-4.06c1.68-1.04,3.74-1.57,6.18-1.57ZM336.95,93.32v1.34h-4.86v-1.34h4.86Z"/>
    <path d="M368.24,98.25h-.19c0-1.11-.41-2.06-1.22-2.85-.81-.79-1.77-1.18-2.88-1.18h-.77l-.06-.64h5.12v4.67ZM368.24,133.71v4.67h-5.12v-.64h.83c1.11,0,2.06-.39,2.85-1.18.79-.79,1.21-1.74,1.25-2.85h.19ZM372.21,93.58v44.8h-4.16v-44.8h4.16ZM389.49,93.58v1.98h-17.47v-1.98h17.47ZM386.74,115.34v1.92h-14.72v-1.92h14.72ZM372.02,133.71h.19c.04,1.11.46,2.06,1.25,2.85.79.79,1.74,1.18,2.85,1.18h.83v.64h-5.12v-4.67ZM389.49,92.43v1.86l-7.81-.7c.94,0,1.93-.06,2.98-.19,1.04-.13,2.02-.28,2.91-.45.9-.17,1.54-.34,1.92-.51ZM386.74,111.24v4.22h-3.71v-.13c.85-.04,1.58-.37,2.18-.99.6-.62.9-1.35.9-2.21v-.9h.64ZM386.74,117.13v4.22h-.64v-.96c0-.85-.3-1.59-.9-2.21-.6-.62-1.32-.93-2.18-.93v-.13h3.71ZM389.49,95.37v4.29h-.64v-.96c0-.85-.31-1.59-.93-2.21-.62-.62-1.35-.93-2.21-.93v-.19h3.78Z"/>
    <path d="M402.86,98.25h-.19c-.04-1.11-.46-2.06-1.25-2.85-.79-.79-1.74-1.18-2.85-1.18h-.83v-.64h5.12v4.67ZM402.86,133.71v4.67h-5.12v-.64h.83c1.11,0,2.06-.39,2.85-1.18.79-.79,1.21-1.74,1.25-2.85h.19ZM406.83,93.58v44.8h-4.16v-44.8h4.16ZM406.64,98.25v-4.67h5.12v.64h-.83c-1.11,0-2.06.39-2.85,1.18s-1.21,1.74-1.25,2.85h-.19ZM424.11,136.39v1.98h-17.47v-1.98h17.47ZM428.02,128.01l-3.71,10.37h-10.62l2.3-1.98c2.26,0,4.11-.35,5.54-1.06,1.43-.7,2.59-1.7,3.49-2.98.9-1.28,1.69-2.73,2.37-4.35h.64Z"/>
    <path d="M437.87,98.25h-.19c0-1.11-.41-2.06-1.22-2.85-.81-.79-1.77-1.18-2.88-1.18h-.77l-.06-.64h5.12v4.67ZM437.87,133.71v4.67h-5.12v-.64h.83c1.11,0,2.06-.39,2.85-1.18.79-.79,1.21-1.74,1.25-2.85h.19ZM441.84,93.58v44.8h-4.16v-44.8h4.16ZM459.12,93.58v1.98h-17.47v-1.98h17.47ZM456.37,115.34v1.92h-14.72v-1.92h14.72ZM459.12,136.39v1.98h-17.47v-1.98h17.47ZM463.02,128.01l-3.71,10.37h-10.62l2.3-1.98c2.26,0,4.11-.35,5.54-1.06,1.43-.7,2.59-1.7,3.49-2.98.9-1.28,1.69-2.73,2.37-4.35h.64ZM459.12,92.43v1.86l-7.81-.7c.94,0,1.93-.06,2.98-.19,1.04-.13,2.02-.28,2.91-.45.9-.17,1.54-.34,1.92-.51ZM456.37,111.24v4.22h-3.71v-.13c.85-.04,1.58-.37,2.18-.99.6-.62.9-1.35.9-2.21v-.9h.64ZM456.37,117.13v4.22h-.64v-.96c0-.85-.3-1.59-.9-2.21-.6-.62-1.32-.93-2.18-.93v-.13h3.71ZM459.12,95.37v5.12h-.64v-1.15c0-1.02-.36-1.91-1.09-2.66-.73-.75-1.62-1.14-2.69-1.18v-.13h4.42Z"/>
    <path d="M473.65,93.58v3.84h-.19c0-.94-.33-1.71-.99-2.3-.66-.6-1.46-.9-2.4-.9h-1.02v-.64h4.61ZM477.62,93.58v28.16c0,3.07.56,5.78,1.7,8.13,1.13,2.35,2.72,4.17,4.77,5.47,2.05,1.3,4.42,1.95,7.1,1.95,2.86,0,5.35-.62,7.49-1.86,2.13-1.24,3.8-2.95,4.99-5.15,1.19-2.2,1.79-4.77,1.79-7.71v-28.99h3.01v28.99c0,3.33-.71,6.24-2.14,8.74-1.43,2.5-3.45,4.45-6.05,5.86-2.6,1.41-5.63,2.11-9.09,2.11s-6.65-.69-9.31-2.08c-2.67-1.39-4.74-3.33-6.21-5.82-1.47-2.5-2.21-5.41-2.21-8.74v-29.06h4.16ZM482.03,93.58v.64h-1.02c-.94,0-1.74.3-2.4.9-.66.6-.99,1.37-.99,2.3h-.13v-3.84h4.54ZM505.65,93.58v3.84h-.19c0-.94-.33-1.71-.99-2.3-.66-.6-1.46-.9-2.4-.9h-1.02v-.64h4.61ZM512.88,93.58v.64h-1.02c-.94,0-1.74.3-2.4.9-.66.6-.99,1.37-.99,2.3h-.13v-3.84h4.54Z"/>
    <path d="M524.21,98.25h-.19c-.04-1.11-.46-2.06-1.25-2.85-.79-.79-1.74-1.18-2.85-1.18h-.83v-.64h5.12v4.67ZM524.21,133.71v4.67h-5.12v-.64h.83c1.11,0,2.06-.39,2.85-1.18.79-.79,1.21-1.74,1.25-2.85h.19ZM528.18,93.58v44.8h-4.16v-44.8h4.16ZM536.37,93.58c1.92,0,3.66.28,5.22.83,1.56.55,2.87,1.35,3.94,2.4,1.07,1.05,1.89,2.3,2.46,3.78.58,1.47.86,3.15.86,5.02,0,2.05-.48,4.01-1.44,5.89-.96,1.88-2.26,3.4-3.9,4.58-1.64,1.17-3.49,1.76-5.54,1.76.73.3,1.51.91,2.37,1.82.85.92,1.6,1.8,2.24,2.66,1.15,1.66,2.17,3.09,3.04,4.29.87,1.2,1.76,2.37,2.66,3.52.9,1.15,1.66,2.07,2.3,2.75.85.94,1.71,1.77,2.56,2.5s1.78,1.3,2.78,1.73c1,.43,2.12.64,3.36.64v.64h-3.52c-1.96,0-3.66-.3-5.09-.9-1.43-.6-2.63-1.33-3.62-2.21-.98-.87-1.81-1.72-2.5-2.53-.13-.17-.48-.66-1.06-1.47-.58-.81-1.26-1.78-2.05-2.91-.79-1.13-1.57-2.25-2.34-3.36-.77-1.11-1.43-2.06-1.98-2.85-.55-.79-.88-1.25-.96-1.38-.81-1.07-1.71-2.05-2.69-2.94-.98-.9-2.05-1.34-3.2-1.34v-.64c1.32.04,2.45.04,3.39,0,1.11-.04,2.33-.21,3.65-.51,1.32-.3,2.56-.92,3.71-1.86,1.15-.94,2.03-2.37,2.62-4.29.13-.47.23-1.06.32-1.76.08-.7.11-1.4.06-2.08-.04-2.9-.78-5.22-2.21-6.94-1.43-1.73-3.34-2.66-5.73-2.78-1.2-.08-2.42-.12-3.68-.1-1.26.02-2.74.03-4.45.03,0-.04-.05-.22-.16-.54-.11-.32-.27-.8-.48-1.44h9.02ZM527.98,133.71h.19c0,1.11.41,2.06,1.22,2.85.81.79,1.77,1.18,2.88,1.18h.77v.64h-5.06v-4.67Z"/>
    <path d="M573.36,92.68c.68,0,1.42.04,2.21.13.79.09,1.56.2,2.3.35.75.15,1.43.3,2.05.45.62.15,1.1.31,1.44.48v7.1h-.58c0-2.05-.7-3.66-2.11-4.83-1.41-1.17-3.12-1.76-5.12-1.76-2.35,0-4.25.74-5.7,2.21s-2.18,3.19-2.18,5.15c0,.81.18,1.76.54,2.85s1.03,2.1,2.02,3.04l12.61,11.65c1.28,1.19,2.13,2.47,2.56,3.84.43,1.37.64,2.69.64,3.97,0,3.54-1.08,6.42-3.23,8.64-2.15,2.22-5.07,3.33-8.74,3.33-1.02,0-2.23-.11-3.62-.32-1.39-.21-2.73-.59-4.03-1.12-1.3-.53-2.38-1.23-3.23-2.08-.13-.68-.19-1.54-.19-2.56s.08-2.1.26-3.23c.17-1.13.41-2.17.7-3.1h.58c-.21,2.18.06,4.08.83,5.7.77,1.62,1.89,2.85,3.36,3.68,1.47.83,3.15,1.21,5.02,1.12,2.35-.13,4.36-.95,6.05-2.46,1.69-1.51,2.53-3.55,2.53-6.11,0-1.24-.21-2.36-.64-3.36-.43-1-1.05-1.87-1.86-2.59l-12.29-11.39c-1.28-1.19-2.18-2.51-2.69-3.94-.51-1.43-.77-2.76-.77-4,0-1.79.43-3.52,1.28-5.18.85-1.66,2.12-3.02,3.81-4.06,1.69-1.04,3.74-1.57,6.18-1.57ZM581.36,93.32v1.34h-4.86v-1.34h4.86Z"/>
  </g>
  <g>
    <path class="st0" d="M39.76,56.49"/>
    <path class="st1" d="M140.22,78.19c.81-2.35,2.54-4.27,4.29-6.02,6.79-6.36,14.44-1.33,19.31,4.62.09.11.11.25.08.38-.32,2.5-2.51,4.34-4.74,5.19-5.46,2.04-11.85,1.44-16.82-1.55-.92-.64-1.97-1.41-2.12-2.62h0ZM140.37,78.18c1.01,3.69,8.74,3.65,11.89,3.78,3.91-.12,9.32-.62,10.7-4.97,0,0,.08.38.08.38-2.43-3.93-6.7-7.66-11.56-6.96-4.19.58-9.43,3.75-11.12,7.78h0Z"/>
    <path class="st1" d="M140.37,78.2c-.38,6.86,2.03,12.81,9.86,12.8,4.69,0,9.79-1.85,12.76-5.58.83-1.02,1.66-2.66,1.46-3.89,0,0,.16.29.16.29-2.77-2.85-5.89-5.29-9.56-6.59-3.73-1.46-7.92-1.3-11.82-1.32,8.59-2.48,16.71.09,22.44,7,.48,1.08-.02,2.23-.38,3.05-2.4,4.64-7.87,6.26-12.57,7.46-6.51,1.82-12.59-1.09-12.96-8.32-.11-1.68.04-3.35.47-4.94.02-.09.16-.06.15.03h0Z"/>
    <path class="st1" d="M119.88,79.08c3.14-1.16,5.85-3.34,8.67-5.12,2.75-1.95,5.68-3.68,8.46-5.66,4.79-3.46,10.64-9.7,15.07-13.72,0,0-.24.74-.24.74-.57-4.1.37-8.19,2.12-11.86.61-1.17,1.25-2.56,2.13-3.45.03.02.04.06.03.09-.24.62-.52,1.21-.75,1.82-1.59,4.11-2.54,8.71-1.96,13.09.06.28-.04.56-.24.74-4.96,4.71-10.55,8.65-15.83,12.98-3.83,3.4-7.87,6.66-12.54,8.88-1.57.73-3.15,1.52-4.92,1.63-.04,0-.07-.03-.07-.07,0-.05.03-.07.07-.08h0Z"/>
    <path class="st1" d="M118.88,84.19c-.15.12-.25-.06-.21-.22.98-3.1,4.17-4.89,7.21-5.37,3.05-.95,6.33-1.22,9.37-.04,1.78.74,4.47,1.8,4.91,3.9,0,.08-.1.11-.14.04-.25-.43-.68-.67-1.11-.9-2.23-1.05-4.65-1.68-7.01-2.37-1.89-.47-3.97-.85-5.87-.17-1.85.77-3.34,2.1-4.99,3.2-.73.56-1.48,1.13-2.12,1.8-.02.02-.03.05-.04.04.01,0-.06-.07-.07-.05-.02,0,0,0,.01,0,.09-.02.15.08.07.13h0Z"/>
    <path class="st1" d="M140.29,78.26c-1.94.12-7.45.62-7.78-2,0-.18.08-.34.2-.44,1.81-1.46,3.56-3,5.34-4.53,0,0,5.37-4.49,5.37-4.49,4.17-3.5,7.51-8,12.43-10.55,1.58-.71,3.35-.6,4.99-.85,6.96-.7,14.04-.62,21.02-.83.09-.01.12.13.02.15-4.61,1-9.29,1.31-13.95,1.74-3.68.36-7.49.34-11.13.83-7.33,3.07-12.28,9.62-17.89,14.98-1.73,1.59-3.56,3.08-5.48,4.44,0,0,.23-.46.23-.46.04.33.59.63.96.76,1.79.66,3.75.86,5.67,1.09.09,0,.09.15,0,.15h0Z"/>
    <path class="st1" d="M156.86,44.68c.08.1-.1.54-.13.68-.71,2.52-2.02,5.53-.64,8,0,0-.38-.19-.38-.19,1.03.17,2.06.4,3.1.51,2.08.24,4.18.11,6.26-.07,5.18-.26,10.32-1.14,15.51-1.45.08,0,.11.12.03.15-3.94,1.56-8.13,2.54-12.37,2.52-1.84.08-4.47-.23-6.32-.45-2.09-.25-4.19-.21-6.29-.11-.12,0-.23-.04-.31-.12-2.5-2.73-.52-6.82,1.35-9.32.07-.1.02,0,.11-.03-.08-.05,0-.18.08-.13h0Z"/>
    <path class="st1" d="M77.47,120.1c-2.6,9.57-4.91,19.25-6.02,29.11-.31,3.3-.15,6.62.12,9.91.02.21-.14.4-.35.43-1.84.44-3.8-.95-3.98-2.85.63-5.15,1.44-12.36,2.16-17.42.61-5.09,1.94-12.32,2.1-17.39-.01-.09.14-.12.15-.02.4,2.95.17,5.9.04,8.83-.39,5.86-1,11.69-1.9,17.49-.44,2.9-.88,5.79-1.39,8.68,0,0,0-.19,0-.19.11.56.44,1.22.9,1.59.49.42,1.15.52,1.8.46,0,0-.35.43-.35.43.06-9.96.22-20.13,3.12-29.75.95-3.2,2.03-6.36,3.46-9.38.04-.08.17-.03.14.06h0Z"/>
    <path class="st1" d="M195.41,42.76c2.03,6.14-1.41,11.29-7.79,12.05-1.57.23-3.77.37-5.33.48-.08,0-.15-.02-.2-.07-.74-.74-1.4-1.61-1.8-2.65-2.39-7.38,9.37-13.94,15.12-9.81h0ZM195.29,42.85c-6.03-2.38-18.15,5.09-12.76,11.9,6.94.13,13.19-3.15,12.76-11.9h0Z"/>
    <path class="st1" d="M198.53,46.84c.52,4.86-3.25,9.56-8.07,10.21-1.53.3-3.08.24-4.62.29-1.16-.41-2.37-.83-3.34-1.72-3.3-2.9-.74-7.83,2.1-10.07,4.05-3.2,10.44-2.41,13.92,1.28h0ZM198.4,46.91c-3.8-2.36-9.1-2.82-12.81-.11-2.42,1.85-5.05,5.62-2.65,8.39.74.88,1.89,1.32,2.98,1.7,1.13-.08,3.01-.3,4.3-.79,4.21-1.3,7.41-4.82,8.18-9.19h0Z"/>
    <path class="st1" d="M170.07,27.19c-8.99.7-17.42,4.53-12.98,14.95,0,0-.28-.27-.28-.27,10.6,2.16,13.2-5.78,13.26-14.68h0ZM170.17,27.08c2.31,9.86-2.36,19.23-13.6,15.59-.13-.04-.25-.14-.28-.27-.57-2.07-.91-4.2-.86-6.36-.1-7.67,8.4-10.21,14.74-8.97h0Z"/>
    <path class="st1" d="M173.73,29.12c.16.04.11.09.14.12l.04.11c1.08,4.45.32,9.8-3.48,12.78-1.89,1.51-4.13,2.34-6.35,2.95-2.23.6-4.51.99-6.82,1.21-.15.01-.3-.06-.37-.18-2.52-4.39,1.46-9.22,4.6-12.1,3.33-3.07,7.86-4.36,12.23-4.89h0ZM173.75,29.27c-5.77.41-18.76,9.87-16.1,16.35,0,0-.4-.23-.4-.23,2.25.06,4.55-.09,6.71-.77,6.29-1.88,11.14-8.87,9.79-15.35h0Z"/>
    <path class="st1" d="M84.1,94.18c-2.43,1.48-4.76,2.92-7.11,4.38-2.44,1.32-4.76,3.02-6.22,5.44-.69.88-2.48,5.25-4.13,3.75-.16-.15-.23-.37-.29-.57-.26-4.04,1.67-7.73,2.3-11.61,0-.08.14-.09.15,0,.62,3.79-.73,7.59-1,11.3,0,.01,0,0,0,0,0,0,0,0-.01,0,0-.01-.03-.06-.05-.08-.1-.12-.4-.2-.5-.12.06-.04.09-.04.17-.12,2.78-3.09,5.73-6.24,8.88-9,2.29-1.72,4.95-2.98,7.77-3.5.08-.01.12.1.05.14h0Z"/>
    <path class="st1" d="M123.72,57.12c-4.05,2.06-7.67,4.62-11,7.65-4.4,4.89-5.92,13.7-13.19,15.52-.77.16-1.52.21-2.27.36-.04,0-.08-.02-.09-.06.55-.52,1.48-.69,2.13-1.03,3.37-1.55,5.28-4.99,7.47-7.86,0,0,1.28-1.86,1.28-1.86.88-1.28,3.3-4.15,4.31-5.4.99-1.16,1.91-2.43,3.05-3.49,2.29-2.07,5.19-3.66,8.29-3.98.08,0,.11.12.03.15h0Z"/>
    <path class="st1" d="M123.65,100.95c-4.59-3.08-10.03-4.55-15.4-5.62-4.03-.85-8.25-1.36-12.39-1.03-2.15-.02-4.04.68-6.11,1.24-.69.15-1.52.19-2.18-.2-2.57-2.06-3.36-6.87-1.9-9.8.79-1.66,1.46-3.79,3.4-4.51,1.3-.51,7.81-1.69,6.03,1.32-1.02,1.19-2.19,1.8-3.32,2.75-1.06.86-2.16,1.74-2.73,3-.01.04-.06.06-.1.04.57-2.82,3.76-4.54,5.19-6.46.07-.1.08-.19.07-.14,0,.15.11.23.05.19-.15-.05-.48-.07-.79-.05-.92.03-2.03.29-2.96.49-2.21.31-2.71,2.79-3.61,4.5-.97,2.3-.41,5.62,1.17,7.56.24.3.9.36,1.52.29,2.02-.36,4.16-.85,6.24-.74,6.98-.16,14.26-.35,20.8,2.51,2.6,1.09,5.14,2.5,7.12,4.54.06.06-.03.17-.1.11h0Z"/>
    <path class="st1" d="M94.27,94.05c1.27-1.61,2.54-3.07,3.66-4.63,1.2-1.45,2.43-3.25,1.98-5.24,0,0,.31.27.31.27-1.8.16-3.19.49-4.1,1.88-1.11,1.91-1.95,4.2-3.44,5.94-.41.45-.91.99-1.57,1.02-.07,0-.11-.1-.04-.14.48-.27.69-.82.94-1.32.98-2.18,1.43-4.5,2.95-6.46.5-.54.88-.89,1.51-1.27,1.26-.67,2.53-.36,3.82-.27.14.01.24.13.24.27-.01,1.06-.17,2.07-.39,3.09-.56,3.12-2.92,5.69-5.77,6.96-.07.03-.14-.06-.09-.12h0Z"/>
    <path class="st1" d="M96.26,85.03c-.5-.34-.7-.42-.68-.65.17-.32.17-.78-.34-.59-.31.13-.53.25-.82.21-.08.01-1-.46-.97-.81.37-.73,1-.98,1.64-.63.41.13.56.75.9.94.17.09.49.11.69.27.34.35.27.94-.27,1.26-.05.03-.11.02-.15-.02h0Z"/>
    <path class="st1" d="M93.28,76.19c1.01-.2,1.97-.57,3.08-.72,1.39-.21,2.88.63,2.57,2.25-.14,1.03-.36,2.41-1.4,2.96-2.02.82-4.12,1.01-6.27.85-2.14-.08-4.82-1.75-2.59-3.86,1.33-1.08,3.1-1.02,4.61-1.48h0ZM93.32,76.34c-1.4.38-2.72,1.33-3.64,2.37-.15.19-.3.39-.23.52.27.43,1.42.77,2.04.91,1.79.24,4.1,1.07,5.78.14.78-.55.46-1.6.42-2.59-.04-.58-.07-.58-.28-.78-1.07-.69-2.79-.87-4.09-.56h0Z"/>
    <g>
      <path class="st1" d="M56.72,97.38c-1.76-3.25-2.2-6.93-2.3-10.55-.51-3.56-1.58-7.05-1.86-10.65-.2-2.39-.29-4.8-.08-7.23,0-.08.13-.1.15-.01,1.09,3.5,1.63,7.03,1.83,10.64.22,2.38-.04,4.82.44,7.18.97,3.47,1.86,6.94,1.96,10.58,0,.08-.11.11-.14.04h0Z"/>
      <path class="st1" d="M66.48,142.98c-1.58-3.1-1.95-6.55-2.07-9.96-.25-2.25-1.14-4.4-1.54-6.62-.67-3.32-1.3-6.84-1.01-10.19,2.55,5.37,2.25,11.08,3.03,16.73.99,3.26,1.82,6.55,1.73,10.01,0,.08-.11.11-.15.03h0Z"/>
      <path class="st1" d="M50.78,49.06c-3.04-5.1-3.75-11.09-4.15-16.9-1.08-9.51-3.92-19.54-.83-28.92.03-.08.16-.05.15.04-.48,3.84-.07,7.64.15,11.48.46,5.74.25,11.61,1.02,17.34,1.26,5.64,2.39,11.27,3.8,16.89.03.08-.09.15-.13.07h0Z"/>
      <path class="st1" d="M31.95,2.82c1.5,1.4,2.22,3.42,2.85,5.32,1.29,3.83,1.3,7.89,1.42,11.86,1.02,9.84,2.98,19.77,1.27,29.67,0,.08-.14.08-.15,0-.22-2-.3-3.97-.42-5.94,0,0-.41-5.9-.41-5.9-.45-5.9-.23-11.88-.77-17.79-.75-4.84-1.52-9.71-2.77-14.43-.29-.93-.59-1.88-1.11-2.69-.05-.06.05-.15.11-.1h0Z"/>
      <path class="st1" d="M39.02,53.77c3.22,5.92,3.8,12.67,4.44,19.23.99,6.52,2.66,12.94,3.11,19.54.24,4.38.58,8.96-.83,13.2-.31.39.02-1.5,0-1.67.03-3.82-.39-7.6-.77-11.4-.71-6.5-.94-13.13-2-19.61-.95-4.27-1.89-8.55-2.64-12.85-.45-2.13-.93-4.26-1.45-6.4-.03-.08.1-.13.14-.05h0Z"/>
      <path class="st1" d="M46.05,108.05c3.17,5.57,4.87,11.82,5.76,18.13.42,2.22,1.53,7.23,1.75,9.4.7,7.15,1.25,14.86,2.35,21.97.03.08-.1.14-.14.05-.89-1.97-1.36-4.05-1.85-6.12-.92-4.16-1.42-8.39-1.49-12.66-.07-4.08-.1-8.57-1.1-12.54-1.07-4.06-2.62-8.01-3.7-12.07-.6-2.02-1.17-4.05-1.73-6.1-.03-.08.1-.14.14-.06h0Z"/>
      <path class="st1" d="M31.88,1.84C34.21.49,37.06-.14,39.74.02c2.04.21,4.03.58,6.03,1.04.88.19,1.87,1,.95,1.89-1.23,1-2.58,1.15-4.02,1.41-3.37.5-6.92.5-10.08-.95-.66-.29-1.55-.87-.74-1.57h0ZM31.98,1.95c-1.56,1.85,5.78.97,6.65,1.11,2.46-.1,5.25.12,7.55-.73.19-.14.21-.14.13-.33-1.79-1.38-4.45-.82-6.57-.72-1.31.09-2.62.1-3.94.06-1.26-.01-2.75-.15-3.82.62h0Z"/>
      <path class="st1" d="M49.54,48.79c.69.08,1.46-.03,2.01.49,0,0,.43.29.43.29,1.01.7,1.05,2.53-.36,2.79-1.14.21-2.03-.32-3.13-.34-2.59-.28-5.46.13-7.73,1.51-.34.19-.49.34-.86.56-.92.64-2.18-.08-2.41-1.06-.51-1.37.44-2.97,1.82-3.25,3.25-1.19,6.81-1.31,10.23-1h0ZM49.52,48.94c-2.69-.14-5.24,1.3-7.83,1.83,0,0-1.95.53-1.95.53-.55.14-.76.23-.94.72-.15.4,0,.96.21,1.12.35.27,1-.25,1.42-.34,2.73-.77,5.26-1.66,8.09-2.02.96-.12,2.02.28,2.91.41.48.03.51-.46.4-.87-.08-.31-.31-.51-.52-.75-.24-.28-.42-.47-.76-.51-.33-.06-.67-.09-1.01-.12h0Z"/>
      <path class="st1" d="M56.17,108.72c-.64.82-1.5,1.28-2.44,1.4-.98-.07-1.88-.19-2.82.22-1.88.71-4.45-.11-4.98-2.2-.02-.06.05-.12.11-.1,1.4.51,2.32.73,3.59,1.13.81.16,1.72.64,2.58.38,1.28-.66,2.28-1.24,3.91-.97.06,0,.1.09.06.14h0Z"/>
      <path class="st1" d="M44.74,84c-2.64-5.43-4.54-11.06-6.57-16.71-2.4-5.44-5.78-10.48-9.04-15.39-2.24-3.23-4.57-6.41-7.7-8.92-.07-.05,0-.17.08-.13,9.27,4.77,13.09,15.27,17.1,24.24,1.82,3.57,3.69,7.14,4.8,11.01.6,1.91,1.12,3.86,1.46,5.84.02.08-.11.13-.14.04h0Z"/>
      <path class="st1" d="M4.51,28.19c.25-.04.28.06.41.07,0,0,.31.1.31.1l.62.21c9.42,3.49,18.84,8.58,24.76,16.95,2.06,2.9,3.39,6.64,2.21,10.18-.09.3-.47.41-.71.22-2.73-1.83-5.42-3.71-8.13-5.56l-4.08-2.78c-2.77-1.91-5.08-4.37-7.17-7.02-2.53-3.3-4.09-7.14-6.64-10.4-.44-.54-1.2-1.47-1.59-1.98h0ZM4.63,28.27c4.01,2.97,6.08,7.69,9.21,11.41,2.1,2.38,4.37,4.76,6.99,6.61,0,0,3.99,2.89,3.99,2.89,2.66,1.94,5.29,3.93,7.85,5.99l-.71.22c1.36-3.21.31-6.89-1.73-9.6-2.03-2.83-4.83-4.98-7.67-6.95-4.28-2.95-8.78-5.65-13.37-8.11-.73-.39-2.75-1.47-3.48-1.84,0,0-.58-.3-.58-.3l-.29-.15c-.08-.07-.25-.06-.2-.18h0Z"/>
      <path class="st1" d="M38,66.67c-5.68-3.47-11.75-6.08-17.94-8.34-3.1-1.15-6.29-2.13-9.58-2.58-3.27-.55-6.61-.53-9.9-.47l.34-1.02c6.78,4.41,14.19,8.15,22.07,10.08,2.64.59,5.33.89,8.08.84.09,0,.11.13.02.15-11.15,1.82-22.1-3.72-30.85-10.17-.47-.29-.21-1.07.34-1.02,3.36.21,6.69.56,9.98,1.14,6.6,1.02,13.28,2.43,19.2,5.67,2.98,1.54,5.83,3.36,8.34,5.59.07.06-.02.17-.09.12h0Z"/>
      <path class="st1" d="M40.38,71.71c-.08.17-.26.1-.37.06-.19-.06-.6-.32-.78-.41-.86-.49-2.07-1.01-2.96-.58-.13.06-.28.04-.39-.04-1.84-1.38-4.43-1.46-6.68-1.31-5.96.57-11.86,2.72-16.83,6.12,0,0-2.99,2.09-2.99,2.09l-.34-.98c4.81-.63,9.63-1.17,14.47-1.54,4.51-.49,10.27.26,12.7-4.44.04-.08.17-.02.14.06-1.08,3.91-5.5,5.18-9.08,5.51-3.61.5-7.24.8-10.87,1.04-2.42.18-4.84.33-7.26.45-.31.04-.6-.18-.61-.5,0-.2.1-.39.27-.48l3.21-1.8c6.98-3.36,16.93-10.39,24.41-4.89,0,0-.45-.09-.45-.09.44-.14.91-.15,1.34-.06,1.02.22,1.81.89,2.58,1.52.12.11.36.25.36.24,0-.04.04-.07.08-.07.06,0,.09.08.06.13h0Z"/>
      <path class="st1" d="M37.13,5.56c.61.38.87.84.85,1.36-.19.56-.41,1.01.06,1.53.73.91.89,2.12-.05,3.05-.04.04-.1.03-.14,0-.45-.5-.67-.92-.8-1.4-.07-.51-.02-1,.17-1.51.09-.27.13-.53.03-.76-.09-.24-.37-.43-.52-.66-.22-.46-.16-.97.23-1.57.03-.05.1-.06.15-.03h0Z"/>
      <path class="st1" d="M39.71,5.05c.99,1.47.89,2.99.6,4.57.11,1.53,1,2.96,1.04,4.52.05,1.03-.02,2.05-.3,3.13-.01.04-.05.07-.1.06-1.03-1.36-1.29-2.94-1.27-4.54-.06-1.02.37-2.09.15-3.11-.59-1.49-.98-2.98-.27-4.61.02-.06.12-.07.15-.01h0Z"/>
      <path class="st1" d="M45.24,54.7c1.19,1.41,1.28,3.02,1.17,4.69.28,1.6,1.32,3.02,1.44,4.67.09,1.07.13,2.22-.39,3.34-.03.07-.13.05-.15-.02-.67-1.54-1.17-3-1.22-4.65-.14-1.05.18-2.21-.15-3.24-.75-1.5-1.32-2.98-.85-4.76.01-.07.11-.09.15-.03h0Z"/>
      <path class="st0" d="M47.78,55.38"/>
      <path class="st1" d="M54.61,113.32c.76.4,1.29,1.04,1.48,1.84.06.39-.02.84.07,1.21.38,1.13,1.36,1.86,1.5,3.2.07.79-.02,1.64-.51,2.4-.03.05-.12.05-.15,0-.68-1.11-.99-2-1.07-3.18-.13-.71.15-1.59-.23-2.25-.17-.34-.54-.59-.77-.89-.4-.63-.56-1.35-.46-2.26,0-.06.08-.1.13-.07h0Z"/>
    </g>
    <path class="st1" d="M86.26,107.6c-1.5,4.37-4.07,9.25-8.8,10.7-1.07.34-2.31.3-3.36.27-2.88-.07-5.78-.19-8.68-.7-2.2-.34-4.11-1.18-6.29-1.66-4.07-.79-3.27-6.95-3.53-10.08-.1-6.43.65-11.64,6.77-15.04,2.69-1.27,5.63-1.57,8.49-1.88,3.79-.35,7.9-.44,11.5,1.11.34.22.68.44.68.95-.13.73-.53.75-.93.87-1.73.25-3.41,0-5.07-.16-4.35-.6-8.91-1.49-12.53-4.22-1.18-.93-1.99-2.38-2.68-3.7-4.13-7.47-10.14-14.16-13.08-22.33-.84-2.62-2-6.09.1-8.4.07-.07.17.04.11.11-.92,1.1-.99,2.61-.74,3.98,2.31,9.95,10.15,17.08,15,25.86.68,1.2,1.21,2.37,2.31,3.26,1.03.82,2.27,1.44,3.53,1.99,3.97,1.5,8.49,2.46,12.76,2.35.31-.02-.02-.08-.07.36.01.19.05.23.09.28-.72-.47-1.61-.66-2.48-.88-2.74-.6-5.59-.79-8.43-.59-3.46.26-7.29.36-10.08,2.66-4.56,3.24-4.76,8.27-4.41,13.41.28,2.65.15,5.73,1.53,8.05.57.89,2.18.8,3.62,1.33,4.05,1.43,8.27,1.7,12.56,1.94,6.09.87,9.79-5,11.98-9.86.03-.09.17-.04.14.05h0Z"/>
    <path class="st1" d="M72.36,79.22c-5.82-4.16-11.67-8.62-15.69-14.65-.95-1.5-2.02-2.93-3.18-4.28-1.16-1.36-2.42-2.6-3.64-3.95-.57-.69-1.27-1.42-1.38-2.55.08-2.88,6.01-1.72,7.79-1.36,7.25,1.51,13.16,6.2,18.07,11.52,4.89,5.2,10.1,11.23,10.35,18.79-.01.84-1.3.79-1.72.59-2.19-1-3.4-3.26-4.5-5.25-1.17-2.29-1.98-4.73-2.59-7.2-1.71-7.45-1.7-15.25-.1-22.71,1.69-6.19,5.32-11.72,9.89-16.16,1.09-.88,2.05-2.08,3.6-2.18.96.11,2.29.8,2.9,1.7,4.01,5.85,6.53,12.68,7.36,19.71.93,8.03-1.15,16.43-6.29,22.8-.39.34-.86.75-1.57.7-.69-.06-1.06-.78-1.12-1.36-.17-1.09.38-2.15.96-2.98,5.59-8.3,14.79-14.04,24.35-16.63,3.87-1.05,7.86-1.54,11.82-2,.14-.02.27.08.29.22.53,5.32-1.89,10.9-3.29,15.94-1.34,5.28-3.98,10.22-7.22,14.59-1.64,2.19-3.49,4.3-5.77,5.87-2.41,1.42-4.97,2.42-7.74,2.88-1.5.22-3.12.22-4.57-.35-.12-.05-.2-.06-.4-.18-.25-.12-.4-.61-.25-.84.7-1,1.92-1.26,2.87-1.72,2.55-1,5.17-1.76,7.81-2.45,7.03-1.77,14.51-3.18,21.69-1.27,6.28,1.71,11.52,5.58,16.72,9.28.58.49,1.3.97,1.59,1.8.22.61,0,1.07,0,1.62-.06.81-.5,1.64-1.03,2.2-1.99,2.03-4.64,3.14-7,4.51-4.72,2.64-9.27,5.91-14.52,7.6-5.41,1.44-11.13.88-16.5-.38-7.22-1.75-13.68-6.05-18.33-11.82-.48-.54.06-1.43.75-1.26,3.37.69,6.65,1.73,9.72,3.21,3.06,1.5,6.02,3.2,8.75,5.21,5.52,3.94,10.45,8.62,14.9,13.72,2.13,2.77,4.99,5.12,5.31,8.93.15,1.48-1.15,3.26-2.76,3.29,0,0-1.29.18-1.29.18-1.72.23-3.38.34-5.07.44-4.03.09-8.27.58-12.16-.81-3.93-2.19-6.83-5.73-10.13-8.69-4.53-4.75-12.89-6.51-14.09-13.95-.39-2.52-.9-12.71,3.08-12.26.83.29,1.02,1.25,1.34,1.93,1.45,3.96,2.31,8.06,4.63,11.56,3.63,4.55,8.49,8.04,13.41,11.09,2.88,1.65,5.94,3.21,9.27,3.56.1,0,.09.16,0,.15-3.39-.3-6.5-1.82-9.43-3.43-2.92-1.66-5.69-3.6-8.32-5.7-1.95-1.62-3.9-3.27-5.45-5.3-2.42-3.5-3.37-7.8-4.83-11.65-.21-.47-.41-1.1-.78-1.42-.01,0,0,0-.02,0h-.1c-.07-.03-.14,0-.2,0-.55.1-1,.86-1.25,1.58-.52,1.5-.63,3.18-.7,4.83-.1,3.25.07,6.66,2.25,9.22,2.03,2.54,5.1,3.99,7.96,5.8,4.91,3.24,8.41,8.2,13.39,11.31,2.14,1.14,4.68.95,7.07,1.03,3.29-.02,6.68-.22,9.93-.66.76-.15,1.73-.15,2.12-.48,1.11-.82.66-2.54.1-3.68-2.99-4.9-7.23-9.04-11.36-13.01-7.23-6.67-15.77-12.53-25.56-14.42,0,0,.75-1.26.75-1.26,2.26,2.72,4.85,5.15,7.82,7.07,7.34,4.67,16.85,6.64,25.36,4.69,5.12-1.64,9.53-4.8,14.26-7.42,1.61-.89,3.2-1.68,4.68-2.64,1.14-.78,2.48-1.55,2.67-2.96,0,0,.07-.68.07-.68.05-.41.01-.41-.22-.72-5.02-4.03-10.89-8.2-17.1-10.01-6.94-1.91-14.26-.58-21.14,1.08-3.35.96-7.22,1.69-10.11,3.57.04-.05-.01-.23-.07-.25,1.35.61,2.87.63,4.34.43,2.57-.39,5.18-1.4,7.44-2.7,2.21-1.51,4-3.52,5.61-5.65,3.24-4.31,5.84-9.09,7.21-14.33,1.39-4.92,3.85-10.5,3.37-15.68,0,0,.29.22.29.22-3.97.44-7.92.89-11.76,1.92-9.42,2.52-19.88,9.09-24.65,17.76-.25.6-.33,1.99.43,2.13.31.04.72-.24,1.04-.54,1.27-1.39,2.22-3.25,3.07-4.96,4.43-8.95,3.51-19.64-.38-28.61-.77-1.81-1.66-3.58-2.65-5.28-.94-1.47-1.82-3.49-3.71-3.66-2,.92-3.64,2.89-5.12,4.56-4.88,5.67-7.8,12.7-7.93,20.21-.47,7.35.24,15.02,3.51,21.69.82,1.58,1.77,3.19,3.14,4.29.41.35.98.51,1.04.42l-.3.53c-.04-3.46-1.43-6.79-3.29-9.76-1.87-2.99-4.21-5.69-6.65-8.28-4.73-5.24-10.42-9.91-17.47-11.45-1.71-.4-3.49-.66-5.19-.49-.82.11-1.75.33-1.63.99.04.69.6,1.42,1.16,2.08,2.42,2.62,4.91,5.32,6.74,8.42,3.84,6.02,9.62,10.6,15.3,14.82.09.05-.01.18-.08.12h0Z"/>
    <path class="st1" d="M58.74,115.38c.56.15.77.34.73.64-.18.33-.49.59,0,.84.73.4.77,1.19-.06,1.69-.04.03-.1.02-.14,0-.61-.36-.92-.49-.79-1.04-.02-.24.45-.63.26-.88-.08-.12-.35-.18-.48-.29-.13-.11-.1-.26-.06-.41.05-.13.25-.55.55-.55h0Z"/>
  </g>
</svg>