<?xml version="1.0" encoding="UTF-8"?>
<svg id="Calque_1" xmlns="http://www.w3.org/2000/svg" version="1.1" viewBox="0 0 841.89 595.28">
  <!-- Generator: Adobe Illustrator 30.4.0, SVG Export Plug-In . SVG Version: 2.1.4 Build 226)  -->
  <defs>
    <style>
      .st0 {
        fill: #1d1d1b;
      }

      .st1 {
        fill: none;
      }
    </style>
  </defs>
  <path class="st1" d="M327.52,277.01"/>
  <path class="st0" d="M502.25,314.75c.16-1.13.84-1.97,1.37-2.92,1.72-2.72,3.75-5.23,6.17-7.39,12.04-10.76,24.8-2.61,33.3,8,.12.15.15.33.11.51-.61,4.26-4.34,7.35-8.15,8.79-7.59,2.85-16.09,2.53-23.68.02-3.3-1.29-8.35-3.12-9.12-7h0ZM502.45,314.73c1.65,7.93,25.9,7.91,31.92,5.2,3.44-1.22,6.68-3.56,7.6-7.24,0,0,.11.5.11.5-4.46-6.76-11.61-13.27-20.27-12.24-7.03.64-16.8,7.04-19.36,13.77h0Z"/>
  <path class="st0" d="M502.45,314.76c-.89,12.28,3.37,22.54,17.18,22.44,8.19-.17,17.05-3.28,22.35-9.73,1.51-1.86,3.01-4.67,2.64-6.98,0,0,.22.39.22.39-2.4-2.51-4.97-4.82-7.74-6.81-5.55-4.07-12.18-6.3-19.06-6.77-3.45-.25-6.94-.13-10.45.11-.12.02-.15-.18-.03-.2,10.37-2.43,22.08-1.51,30.78,5.13,2.94,2.14,5.51,4.69,7.91,7.33.72,1.78-.07,3.63-.66,5.04-3.69,7.39-12.11,10.4-19.56,12.47-7.55,2.19-17.4,2.15-21.88-5.5-3.03-5.11-3.15-11.34-1.89-16.95.03-.12.21-.08.2.04h0Z"/>
  <path class="st0" d="M466.85,316.33c5.54-1.87,10.31-5.62,15.23-8.71,4.83-3.37,9.84-6.5,14.62-9.99,9.46-7.11,17.63-15.77,26.36-23.71,0,0-.32.98-.32.98-.98-7.06.58-14.13,3.52-20.51.99-2.01,2.14-4.45,3.54-6.03.04.03.06.08.04.12-.44,1.06-.95,2.08-1.38,3.14-.8,2.03-1.66,4.28-2.2,6.41-1.45,5.28-2.17,11.06-1.43,16.46.07.37-.06.75-.32.99-8.63,8.17-18.17,15.24-27.38,22.72-6.18,5.32-12.62,10.46-19.85,14.33-2.6,1.37-5.37,2.78-8.21,3.61-.72.22-1.46.4-2.24.4-.05,0-.1-.04-.1-.1,0-.06.04-.09.1-.1h0Z"/>
  <path class="st0" d="M465.09,325.16s-.05.05-.12.06c-.02.01-.09,0-.13-.04-.03-.03-.06-.1-.05-.11.06-.9.65-1.68,1.11-2.43,1.58-2.26,3.72-4.16,6.19-5.39,4.24-1.68,8.73-2.78,13.29-3.07,4.59.2,9.12,1.47,13.05,3.89,1.48,1,3.36,2.21,3.65,4.12.01.11-.15.15-.19.05-.86-1.49-2.69-2.07-4.19-2.77-6.33-2.19-13.48-5.33-20.2-3.28-3.26,1.26-5.99,3.46-8.8,5.48-1.27,1.04-2.62,2.09-3.64,3.38.01,0-.07-.07-.09-.05-.01.01.02,0,.03,0,.13-.03.2.11.1.18h0Z"/>
  <path class="st0" d="M502.35,314.84c-3.17.16-12.85.77-13.3-3.44,0-.25.12-.47.31-.61,3.16-2.51,6.2-5.17,9.27-7.82,6.21-5.22,12.39-10.52,18.13-16.28,3.54-3.75,7.58-6.93,12.09-9.46,0,0,.68-.38.68-.38.65-.43,1.81-.63,2.46-.72,6.1-.83,12.18-1.21,18.3-1.51,7.99-.35,16.56-.64,24.47-.81-3.86,1.1-8.17,1.26-12.19,1.8-8.09.81-16.2,1.39-24.3,1.86-2.4.18-5,.27-7.3.7-.29.03-.98.45-1.3.58-2.02,1.09-4.57,2.5-6.54,3.72-8.66,6.26-15.57,14.53-23.35,21.8-3.02,2.74-6.18,5.34-9.5,7.74l.31-.61c0,.24.14.52.51.81,1.28.9,2.95,1.22,4.51,1.56,2.2.43,4.47.68,6.73.87.12,0,.12.2,0,.2h0Z"/>
  <path class="st0" d="M531.14,256.5c.07.06.04.17,0,.25-.01.08-.1.3-.12.38-1.41,4.36-4.1,10.35-1.39,14.59,0,0-.5-.25-.5-.25,1.8.26,3.6.59,5.41.76,3.51.38,7.36.23,10.89,0,5.23-.23,10.97-.78,16.14-1.44,3.59-.33,7.39-1.18,10.95-1.18-3.32,1.43-7.06,2.25-10.64,3.06-5.39,1.13-10.96,1.39-16.46,1.06-5.46-.53-10.9-1.01-16.4-.8-.21,0-.38-.11-.5-.25-3.68-4.17-1.11-10.28,1.32-14.4.34-.57.75-1.14,1.12-1.68,0,0,.02-.03.01,0,0,.03.03.07.05.07-.11-.06,0-.24.11-.17h0Z"/>
  <path class="st0" d="M393.05,387.63c-3.37,11.03-5.96,22.23-8.04,33.55-2.36,11.26-3.44,22.85-2.36,34.33.02.29-.19.54-.47.58-2.19.45-4.62-.46-5.77-2.43-.4-.69-.84-1.46-.88-2.31,0,0,1.89-15.15,1.89-15.15,1.05-8.78,2.79-21.37,3.93-30.27.61-5.03,1.39-10.08,1.38-15.15,0-.06.04-.12.1-.11.05,0,.09.04.1.09.6,5.11.15,10.24-.12,15.32-.72,10.18-1.89,20.31-3.39,30.39-.74,5.04-1.5,10.08-2.35,15.11v-.26c.09.5.32,1.09.59,1.59.82,1.61,2.59,2.33,4.35,2.1,0,0-.47.58-.47.58l-.03-4.35c-.05-2.4.1-6.24.13-8.68.15-2.47.27-6.23.48-8.66.51-10.13,2.11-20.22,4.92-29.97,1.57-5.58,3.45-11.07,5.82-16.36.05-.11.23-.04.19.07h0Z"/>
  <path class="st0" d="M598.17,253.16c3.21,10.54-2.67,19.45-13.55,20.83-2.96.41-6.64.98-9.54.7-4.43-4.22-4.62-10.31-.88-15.08,4.96-6.68,16.48-11.41,23.97-6.45h0ZM598.01,253.28c-8.31-3.54-21.77,3.39-24.46,11.76-.96,3.15.05,6.52,2.16,9.03,0,0-.31-.14-.31-.14,13.3,1.11,24.05-6.53,22.62-20.65h0Z"/>
  <path class="st0" d="M603.6,260.25c.61,9.38-6.81,17.23-16.05,17.85-1.95.28-4.12.25-6.07.3-4.08-1.13-8.56-4.15-8.26-8.93.21-4.53,3.04-8.37,6.37-11.22,6.99-5.44,17.86-4.16,24.01,2h0ZM603.42,260.34c-6.57-4.38-15.97-5.22-22.53-.43-3.66,2.93-7.25,7.66-6,12.49.85,2.9,4.27,4.7,6.68,5.39,1.88-.1,3.96-.26,5.79-.77.63-.16,1.27-.24,1.86-.5,7.84-2.48,12.81-8.03,14.2-16.19h0Z"/>
  <path class="st0" d="M554.15,226.04c-16.18.86-30.18,7.71-22.76,26.08,0,0-.37-.35-.37-.35,18.62,4.09,23.54-10.01,23.13-25.72h0ZM554.29,225.89c1.36,7.27,1.46,15.33-2.85,21.76-4.45,6.68-13.73,7.8-20.73,5.17-.18-.05-.32-.18-.37-.35-2.77-9.13-2.74-20.25,7.37-24.58,5.17-2.29,11.04-2.84,16.58-2h0Z"/>
  <path class="st0" d="M560.5,229.44c.29.05.31.52.41.74.78,3.7.78,7.54,0,11.26-2.64,13.17-17.51,16.73-29.03,17.64-.23.02-.44-.11-.54-.3-2.26-3.56-1.17-8.15.71-11.6,5.98-10.68,16.54-16.45,28.46-17.74h0ZM560.52,229.64c-10.61,1.55-21.14,9.61-26.82,18.47-1.73,3.05-2.96,6.76-1.34,10.08,0,0-.54-.3-.54-.3,7.73.24,16.12-1.65,21.69-7.25,5.37-5.23,8.86-13.61,7.01-21h0Z"/>
  <path class="st0" d="M404.61,342.53c-4.31,2.38-8.43,4.85-12.5,7.44-3.1,1.86-6.21,3.88-8.59,6.68-1.43,1.56-3.03,4.16-4.15,5.98-.78,1.17-1.58,2.48-2.82,3.44-.53.44-1.6.56-2.1-.12-.7-.94-.48-2.07-.47-2.98.69-6.15,2.83-12.12,3.92-18.09.86,4.82-.57,9.96-1.26,14.76-.26,1.63-.73,3.48-.64,5.04,0,.06.04.12-.04,0-.05-.11-.42-.24-.52-.19-.11.06.17-.07.33-.23,1.65-1.54,3.09-3.7,4.69-5.42,3.45-3.57,6.88-7.09,10.72-10.25,3.99-2.93,8.55-5.17,13.38-6.26.11-.02.17.14.07.19h0Z"/>
  <path class="st0" d="M473.52,278.07c-4.84,2.1-9.15,4.99-13.24,8.18-3.16,2.29-6.19,4.92-8.44,8.15-5.09,7.62-8.39,17.2-16.59,22.33-2.34,1.43-5.32,1.9-7.88,2.19,1.01-.82,2.57-1.09,3.72-1.65,3.63-1.43,6.16-4.34,8.56-7.35,2.43-3.07,4.65-6.3,6.81-9.57,2.25-3.3,4.84-6.36,7.35-9.45,3.34-4.15,7.12-8.16,12.02-10.5,2.39-1.22,4.94-2.21,7.62-2.53.11-.02.16.16.04.2h0Z"/>
  <path class="st0" d="M473.43,354.31c-11.79-8.41-33.96-12.62-48.36-11.64-2.42.07-4.77.34-7.08,1.07-2.24.59-4.91,1.85-7.2.64-2.37-1.76-3.25-4.54-3.96-7.21-.7-3.04-.69-6.56.82-9.51,1.36-2.82,2.46-6.46,5.74-7.7,1.24-.5,2.47-.65,3.77-.86,1.98-.2,3.86-.65,5.89.03,1.26.5,1.25,1.86.52,2.71-3.25,3.69-8.22,5.54-10.37,10.12-.03.12-.23.06-.19-.06.3-1.21.97-2.3,1.71-3.28,1.49-1.96,3.37-3.57,5.17-5.21.92-.91,2.14-1.83,2.56-2.84-.02.13.13.19-.05.11-2.05-.39-4.58.3-6.67.69-2.97.38-4.27,2.97-5.38,5.51,0,0-.76,1.65-.76,1.65-1.36,2.49-1.46,5.46-.91,8.23.47,2.08,1.2,4.57,2.7,6.06.17.16.3.26.51.36,3.04.8,6.35-1.04,9.49-1.1,1.07-.08,2.58-.07,3.67-.1,12.13-.33,24.72-.32,36.09,4.48,3.4,1.37,6.7,3.11,9.66,5.29.97.75,1.94,1.5,2.78,2.4.08.08-.05.23-.14.14h0Z"/>
  <path class="st0" d="M422.33,342.35c2.34-2.64,4.62-5.18,6.57-7.93,2.06-2.6,4.01-5.8,3.34-9.27,0,0,.41.37.41.37-2.55.25-4.89.38-6.45,2.16-.26.29-.69.72-.92,1.03-2.01,3.34-3.37,7.32-5.89,10.45-.68.79-1.47,1.75-2.6,1.83-.11,0-.14-.16-.03-.2,1.64-1,2.1-3.27,2.91-4.94,1.43-3.28,2.34-7.09,5.22-9.55,2.07-2.16,5.19-1.83,7.83-1.6.19.01.34.17.34.36.02,5.42-2.01,10.88-6.22,14.41-1.34,1.18-2.76,2.27-4.39,3.04-.1.05-.19-.08-.12-.16h0Z"/>
  <path class="st0" d="M425.8,326.65c-.5-.46-.93-.71-.99-1.26.03-.23.15-.62-.01-.84-.3-.52-1.1-.04-1.51-.05-.9.19-1.62-.21-2.37-.81-.06-.05-.07-.13-.03-.2.47-.71,1.11-1.02,1.78-1.09.95,0,1.71.6,2.19,1.37.36.44,1,.46,1.42.83.56.61.41,1.56-.28,2.07-.06.05-.15.03-.2-.02h0Z"/>
  <path class="st0" d="M420.6,311.3c2.86-.47,7.82-2.79,9.49.98.21.62.12,1.24.09,1.63-.2,1.76-.47,4.11-2.24,5.08-1.67.9-3.52.98-5.34,1.24-2.74.32-5.58.32-8.27-.58-2.73-.81-3.97-3.58-1.55-5.6,2.24-1.85,5.22-1.97,7.82-2.76h0ZM420.65,311.5c-2.45.68-4.82,2.14-6.52,3.94-.33.4-.69.83-.49,1.24.57.95,2.59,1.46,3.81,1.73,2.49.41,5.19.94,7.76.77,1.64-.09,3.43-.89,3.4-2.75.05-.81-.05-1.68-.09-2.57-.03-.83,0-1.13-.57-1.59-1.99-1.2-4.96-1.29-7.29-.77h0Z"/>
  <g>
    <path class="st0" d="M357.04,348.11c-2.73-5.75-3.57-12.08-3.93-18.36-.91-6.19-2.47-12.3-3.01-18.55-.37-4.16-.61-8.33-.43-12.54,0-.11.18-.13.2-.02,1.62,6.11,2.5,12.27,2.92,18.54.39,4.14.17,8.37.96,12.47.9,4.06,2.14,8.04,2.66,12.19.32,2.05.64,4.1.82,6.21.01.11-.15.15-.19.05h0Z"/>
    <path class="st0" d="M374.01,427.42c-2.41-5.49-3.14-11.42-3.53-17.33-.48-3.9-1.81-7.67-2.49-11.54-1.11-5.78-2.17-11.82-2.05-17.66,2.22,5.48,3.18,11.49,3.91,17.36.56,3.88.46,7.88,1.27,11.73.92,3.82,2.13,7.57,2.52,11.5.26,1.95.5,3.89.56,5.89,0,.1-.15.15-.19.04h0Z"/>
    <path class="st0" d="M346.7,264.07c-4.96-8.98-6.28-19.33-7.14-29.38-1.23-10.03-3.08-20-3.48-30.13-.19-6.72-.32-13.73,1.97-20.16.04-.11.22-.07.19.05-1.36,9.6.22,20.36.53,30.04.5,6.69.39,13.46,1.43,20.1.52,3.32,1.32,6.59,2.07,9.86,1.42,6.54,2.61,13.11,4.61,19.52.05.11-.12.2-.18.09h0Z"/>
    <path class="st0" d="M313.9,183.7c2.51,2.49,3.69,6,4.74,9.29,2.13,6.67,2.31,13.68,2.59,20.58.42,6.88,1.72,13.68,2.27,20.55.98,10.3,1.48,20.75,0,31.03-.01.11-.2.1-.2-.02-.04-2.92-.37-7.33-.52-10.31-.34-5.14-.92-15.44-1.16-20.57-.51-8.58-.24-17.25-1.74-25.75-.85-5.05-1.66-10.13-2.75-15.12-.81-3.26-1.55-6.69-3.38-9.54-.09-.08.04-.24.13-.15h0Z"/>
    <path class="st0" d="M326.19,272.29c3.34,6.9,5.36,14.49,6.29,22.06.85,7.6,1.74,15.18,3.3,22.67,1.46,7.51,2.58,15.09,3.26,22.71.42,7.59,1.14,15.55-1.16,22.93-.04.11-.22.06-.19-.06.34-1.87.38-3.77.38-5.66-.05-5.69-.63-11.36-1.16-17.02-.88-8-2.28-26.42-3.72-34.09-1.57-7.45-3.04-14.92-4.47-22.39-.81-3.7-1.72-7.39-2.73-11.08-.04-.11.14-.18.19-.07h0Z"/>
    <path class="st0" d="M338.42,366.7c3.42,6.55,5.97,13.53,7.81,20.67,1.4,6.23,2.95,15.36,4.25,21.71.62,3.58,1.05,7.41,1.24,11.01.99,10.91,1.87,21.9,3.86,32.68.04.11-.14.19-.19.07-1.45-3.44-2.2-7.07-3-10.67-1.5-7.24-2.37-14.59-2.55-21.99-.16-7.22-.39-14.78-2.1-21.82-.3-1.33-1.03-4-1.46-5.3-1.18-3.66-6.84-22.28-8.05-26.28-.04-.11.13-.19.18-.08h0Z"/>
    <path class="st0" d="M313.83,181.99c.93-.78,2.11-1.05,3.22-1.45,3.36-1.1,6.91-1.71,10.44-1.48,2.35.13,4.67.56,6.98.92,1.77.32,7.49.96,5.03,3.81-1.98,1.56-4.52,1.88-6.91,2.27-4.68.62-9.45.79-14.08-.34-1.4-.44-6.97-1.57-4.68-3.73h0ZM313.96,182.14c-2.88,3.2,10.12,2.11,11.57,2.27,4.34-.17,9.22.19,13.26-1.46.96-.66-.4-1.34-1.09-1.6-3.25-1.19-6.84-.81-10.23-.63-2.29.12-4.57.16-6.87.16-2.21.05-4.77-.08-6.64,1.26h0Z"/>
    <path class="st0" d="M344.51,263.66c.63.1,2.12.02,2.69.36.77.57,1.64,1,2.17,1.82.93,1.31.55,3.48-1.28,3.78-1.08.24-1.98-.07-2.95-.27-.79-.2-1.62-.24-2.45-.33-4.84-.37-10.08.55-14.24,3.17-.5.35-1.18.78-1.89.87-3.2.06-3.82-4.55-1.71-6.34.5-.51,1.34-.84,1.95-1.03,5.64-1.95,11.77-2.49,17.69-2.02h0ZM344.49,263.86c-4.7-.26-9.18,1.95-13.71,2.9-.46.13-3.71,1-4.09,1.13-.58.23-.95.66-1.13,1.28-.31,1.16.17,2.82,1.54,2.27,2.7-1.24,5.69-1.95,8.52-2.7,3.67-1.02,7.78-2.07,11.55-.75,1.78.45,1.91-1.28,1.06-2.42-.37-.38-.81-.9-1.22-1.23-.72-.44-1.69-.33-2.52-.48h0Z"/>
    <path class="st0" d="M356.04,367.81c-1.17,1.2-2.67,1.97-4.3,2.21-.82.07-1.67-.08-2.47,0-1.62.1-3.2.89-4.87.76-2.57,0-5.26-1.5-6.15-3.97-.03-.09.06-.18.15-.13,2.23,1.1,4.02,1.64,6.23,2.23,1.44.25,3.03.88,4.53.48.76-.19,1.45-.66,2.15-.97,1.5-.58,2.99-.83,4.64-.78.09,0,.14.12.08.19h0Z"/>
    <path class="st0" d="M336.2,324.85c-2.75-6.39-5.35-12.8-7.77-19.31-2.19-6.58-4.69-13.09-8.23-19.08-3.45-5.99-6.94-11.96-10.9-17.6-3.93-5.64-8.1-11.16-13.63-15.35-.1-.06,0-.23.1-.17,6.31,3.17,11.16,8.68,15.27,14.3,6.17,8.54,10.07,18.35,14.39,27.87,3.09,6.24,6.18,12.51,8.22,19.19,1.08,3.31,2.03,6.67,2.74,10.09.03.11-.15.17-.19.06h0Z"/>
    <path class="st0" d="M266.22,227.82c.18-.06.48.09.66.15,0,0,.54.19.54.19l1.08.39c16.23,6.33,32.61,15.05,43.02,29.47,3.58,5,5.83,11.5,3.75,17.59-.12.39-.62.55-.95.29,0,0-14.08-9.76-14.08-9.76-2.54-1.82-8.27-5.5-10.55-7.5-3.28-2.9-6.23-6.01-8.97-9.47-4.43-5.69-7.17-12.39-11.7-17.98,0,0-2.81-3.36-2.81-3.36h0ZM266.39,227.92c6.84,5.33,10.43,13.49,15.83,20.04,2.68,3.17,5.73,6.25,8.85,9.03,2.18,1.88,7.91,5.79,10.28,7.57,4.64,3.35,9.22,6.79,13.71,10.33,0,0-.95.29-.95.29,2.33-5.64.44-12.07-3.1-16.82-3.53-4.93-8.35-8.75-13.26-12.22-4.95-3.46-10.07-6.7-15.35-9.68-4.84-2.75-10.1-5.52-15.1-7.99,0,0-.51-.25-.51-.25l-.26-.13s-.11-.05-.11-.06c0,0,0-.06-.03-.11h0Z"/>
    <path class="st0" d="M324.47,294.69c-10.96-6.95-22.94-12.06-35.25-16.07-9.56-3.23-19.82-4.21-29.85-3.94,0,0,.45-1.35.45-1.35,7.81,5.32,16.27,9.75,25,13.32,4.38,1.75,8.87,3.25,13.48,4.26,4.6,1.03,9.34,1.51,14.1,1.27.12-.01.15.18.02.2-14.43,2.37-28.97-3.04-41.41-9.97-4.21-2.38-8.28-4.96-12.14-7.9-.57-.41-.21-1.39.49-1.32,0,0,4.36.28,4.36.28,4.33.26,8.69.86,12.97,1.56,11.46,1.77,22.98,4.49,33.3,9.98,5.18,2.65,10.17,5.74,14.6,9.53.09.08-.02.23-.12.16h0Z"/>
    <path class="st0" d="M328.56,303.46c-.12.27-.42.15-.6.08-2.01-1.01-4.26-2.78-6.59-1.85-.22.09-.44.03-.6-.12-1.51-1.21-3.54-1.81-5.52-2.16-4.03-.64-8.3-.04-12.28.77-8.28,1.7-16.12,5.2-23.17,9.84,0,0-5.25,3.57-5.25,3.57l-.46-1.3c8.37-1.02,16.77-1.91,25.17-2.58,7.71-.84,18.12.24,22.09-8.03.05-.11.23-.03.18.08-.68,2.01-1.9,3.91-3.6,5.31-3.4,2.8-7.99,3.52-12.19,4.02-6.29.79-12.59,1.32-18.91,1.77-4.2.32-8.41.62-12.62.86-.73.11-1.14-.93-.46-1.3,0,0,5.54-3.19,5.54-3.19,9.43-4.82,18.88-10.83,29.68-11.75,4.36-.21,9.13.18,12.58,3.25,0,0-.6-.12-.6-.12,2.74-.89,5.1,1.17,7.12,2.69.13.08.29.14.29.09.02-.15.27-.07.18.08h0Z"/>
    <path class="st0" d="M322.9,188.44c.79.64,1.26,1.44,1.26,2.41-.04.46-.27.94-.26,1.38.01.44.19.85.45,1.25.52.78.8,1.64.9,2.54.01.88-.13,1.88-.85,2.73-.05.07-.16.05-.2-.02-.82-1.28-1.23-2.33-1.13-3.74-.06-.84.51-1.82.18-2.65-.14-.41-.54-.78-.75-1.18-.21-.4-.22-.84-.21-1.28.04-.45.11-.91.39-1.41.04-.07.13-.09.2-.04h0Z"/>
    <path class="st0" d="M327.39,187.56c1.38,2.59,1.3,5.18.98,7.96.21,2.67,1.46,5.19,1.58,7.88.12,1.78.06,3.56-.22,5.4,0,.06-.06.1-.12.09-1.53-2.4-1.89-5.19-1.95-7.92-.12-1.78.41-3.62.07-5.39-.45-1.73-1.17-3.43-.97-5.28.05-.9.13-1.8.43-2.73.03-.09.16-.1.2-.02h0Z"/>
    <path class="st0" d="M337.01,273.91c1.71,2.46,1.99,5.3,1.97,8.18.83,3.67,2.76,7.1,2.41,11-.05.95-.11,1.95-.52,2.9-.04.09-.18.08-.2-.02-.89-2.7-1.69-5.32-1.87-8.14-.27-1.84.08-3.8-.45-5.61-1.14-2.63-2.04-5.32-1.54-8.26.01-.09.14-.12.19-.04h0Z"/>
    <path class="st1" d="M341.45,275.09"/>
    <path class="st0" d="M353.3,375.86c1.18.81,2,1.95,2.37,3.29.14.67.09,1.4.26,2.04.67,1.9,2.16,3.51,2.38,5.59.15,1.36.07,2.8-.59,4.12-.04.08-.16.08-.2,0-.91-1.94-1.38-3.6-1.61-5.6-.24-1.25.03-2.71-.58-3.88-.7-1.13-1.69-2.01-1.93-3.41-.16-.64-.3-1.29-.27-2.05,0-.09.1-.14.18-.1h0Z"/>
  </g>
  <path class="st0" d="M408.35,365.89c-2.47,7.05-6.41,14.44-13.46,17.79-2.34,1.14-5.16,1.21-7.65,1.07-5.01-.14-10.05-.36-15.06-1.25-2.5-.44-4.99-1.13-7.36-1.95-2.34-.86-5.6-.8-7.19-3.1-1.57-2.32-1.72-4.96-2.03-7.57-.24-2.52-.33-5.03-.38-7.54-.03-5.01.07-10.13,1.64-14.99.79-2.42,2.23-4.62,4.07-6.39,1.82-1.75,3.63-3.6,5.94-4.69,4.61-2.2,9.74-2.67,14.73-3.2,6.56-.57,13.65-.68,19.85,1.99,1.42.71,1.36,2.26-.11,2.63-3.01.51-6.05.03-9-.25-7.5-1.09-15.41-2.57-21.61-7.32-2.11-1.58-3.35-4.09-4.58-6.34-4.93-8.6-10.82-16.7-16.2-25.18-3.7-6.18-12.48-21.91-6.62-28.09.09-.09.23.05.14.14-5.2,6.22,4.13,21.29,7.8,27.1,6.22,9.25,13.2,18.26,18.55,28.21,5.18,7.45,21.42,10.03,30.09,10.15.37-.02.75-.03,1.05-.11.09-.02-.12-.02-.18.4,0,.13.01.24.08.31,0,.01,0,0-.02-.01-1.28-.87-2.89-1.18-4.42-1.57-7.22-1.61-14.84-1.24-22.15-.23-2.45.38-4.88.93-7.09,2.01-2.26,1.03-4.03,2.81-5.82,4.5-5.66,5.29-5.3,13.71-5.03,20.89.14,2.48.33,4.98.65,7.42.33,2.27.67,4.89,1.97,6.72,1.43,1.83,4.3,1.55,6.42,2.41,2.36.8,4.71,1.43,7.13,1.9,4.84.89,9.82,1.18,14.8,1.45,2.48.15,4.8.24,7.08-.74,6.82-2.99,10.86-10.03,13.78-16.64.04-.12.23-.05.19.06h0Z"/>
  <path class="st0" d="M384.22,316.51c-10.09-7.26-20.26-15.02-27.21-25.51-3.43-5.72-8.22-10.28-12.62-15.26-6.19-8.19,7.29-6.79,11.77-5.62,6.16,1.41,12.02,4,17.27,7.5,5.27,3.47,9.61,8.08,14.04,12.53,6.48,6.81,12.78,14.19,16.11,23.12,1.09,3,1.77,6.19,1.82,9.41-.21,1.56-2.78.94-3.54.37-3.16-2.03-5.1-5.4-6.81-8.6-5.9-11.93-7.25-25.62-6.45-38.73.34-4.41.73-8.79,1.81-13.11,2.91-10.71,9.22-20.3,17.12-27.98,1.63-1.51,4.01-3.64,5.96-3.74,4.05.29,6.05,4.31,7.86,7.35,1.75,3.04,3.27,6.19,4.62,9.42,8.28,19.19,8.15,43.03-5.53,59.79-.72.65-1.55,1.29-2.63,1.19-1.1-.09-1.74-1.26-1.84-2.26-.3-1.87.65-3.66,1.64-5.1,1.86-2.96,4.09-5.68,6.53-8.18,9.87-9.83,22.24-17.23,35.74-20.71,6.73-1.82,13.67-2.67,20.55-3.47.19-.02.36.11.38.3.41,3.2.01,6.4-.6,9.49-.97,5.33-3.58,12.91-5.13,18.18-.69,2.24-1.26,4.57-2.13,6.77-2.58,6.64-6.2,12.84-10.43,18.55-2.84,3.8-6.05,7.45-10,10.16-6.14,3.4-14.23,6.8-21.26,4.37-.33-.12-.94-.36-1.06-.83-.61-2.23,7.66-4.5,9.41-5.21,9.04-2.88,18.26-5.11,27.73-6.13,13.38-1.43,25.12,1.96,36.22,9.4,4,2.6,7.92,5.17,11.74,8.05,1.37,1.01,3.18,2.6,2.77,4.55,0,0-.12,1.16-.12,1.16-.29,3.16-3.24,5.18-5.59,6.74-2.68,1.75-5.54,3.19-8.25,4.69-10.85,6-21.73,14.65-34.77,14.56-15.94.55-32.3-4.58-44.13-15.49-2.35-2.17-4.52-4.53-6.54-7.02-.62-.73.09-1.88,1-1.69,25.55,4.96,47.8,25.31,63.41,45.24,1.73,2.37,3.51,5.1,3.62,8.46.2,2.61-1.88,5.35-4.56,5.45,0,0-2.23.31-2.23.31-8.82.96-17.62,1.6-26.45.4-3.05-.4-5.73-2.22-8.05-4.11-4.57-3.7-8.58-7.95-12.88-11.91-2.14-1.97-4.28-3.9-6.68-5.44-4.88-3.16-10.4-5.81-14.11-10.53-1.88-2.35-3.16-5.2-3.69-8.16-.69-4.53-1.39-19.73,4.1-21.16,2.03-.42,2.64,1.86,3.26,3.28,2.52,6.86,4.04,14.05,8.09,20.13,6.34,7.91,14.82,13.98,23.39,19.27,5.01,2.96,10.55,5.46,16.25,6.28-2.84.12-5.87-1.1-8.59-2.05-8.13-3.33-15.47-8.32-22.31-13.78-4.46-3.75-9.19-7.64-11.7-13.04-3.02-5.9-4.24-12.45-6.99-18.33-.27-.4-.41-.71-.82-.71-4.85.36-4.16,16.3-3.48,19.89.52,2.78,1.72,5.4,3.49,7.59,3.64,4.53,9.02,7.04,13.87,10.14,7.32,4.92,12.91,11.87,19.79,17.29,1.67,1.29,3.34,2.56,5.32,3.25,6.23,1.54,12.89.98,19.28.7,2.88-.2,5.82-.42,8.62-.83.93-.22,3.09-.23,3.81-.87,3.14-2.79.03-7.58-1.98-10.31-12.38-15.87-27.64-30.15-45.85-39.02-5.2-2.47-10.68-4.33-16.31-5.34,0,0,1-1.69,1-1.69,11.47,14.82,30.44,22.48,48.96,21.8,12.84.06,23.08-8.32,33.91-14.2,4.03-2.29,8.4-4.15,11.67-7.36.71-.78,1.18-1.59,1.27-2.6.02-.47.25-1.59.11-1.98-.04-.19-.22-.43-.43-.67-1.55-1.6-3.55-2.87-5.39-4.2-2.57-1.79-5.16-3.58-7.78-5.27-17.68-12.18-33.67-11.06-53.6-6.07-5.89,1.65-12.2,2.94-17.48,6.1-.13.1-.21.22-.22.24-.01.02.02-.06,0-.14,5.01,2.01,11.44.23,16.5-1.97,5.88-2.25,10.19-7.04,13.92-11.95,5.63-7.5,10.17-15.88,12.54-24.98,1.53-5.22,4.2-12.78,5.2-18.08.63-3.05,1.02-6.19.64-9.24l.39.3c-13.73,1.3-27.65,3.98-39.51,11.35-8.78,5.39-17.17,11.95-22.72,20.74-.93,1.39-1.74,2.88-1.48,4.55.32,2.1,1.81,1.76,3.03.54,2-2.08,3.39-4.95,4.84-7.49,0,0,.55-1.17.55-1.17,7.75-15.6,6.17-34.25-.6-49.91-1.35-3.16-2.88-6.25-4.61-9.21-1.34-2.09-2.41-4.46-4.5-5.78-.61-.41-1.45-.67-2.12-.71-.08-.01-.63.16-1.03.42-.43.24-.85.54-1.27.84-8.92,7.4-15.9,18.08-18.98,29.26-1.03,4.14-1.4,8.52-1.72,12.79-.81,14.76.61,30.97,9.53,43.23.97,1.15,1.99,2.3,3.36,2.87.39.14.73.16.89.05,0,0-.39.71-.39.71-.35-12.48-9.24-22.77-17.37-31.52-4.31-4.41-8.56-9.01-13.7-12.46-5.09-3.46-10.8-6.04-16.79-7.46-2.63-.7-12.08-2.16-12.06,1.05.09,1.29,1.08,2.57,2.06,3.71,4.21,4.55,8.55,9.21,11.73,14.6,6.72,10.47,16.78,18.41,26.69,25.74.12.07-.01.24-.11.16h0Z"/>
  <path class="st0" d="M360.48,379.44c.61.25,1.1.56,1.05,1.17-.07.26-.31.57-.31.81,0,.25.16.44.4.63,1.01.75,1.16,2.01.02,2.9-.06.04-.13.04-.19,0-.64-.45-.94-.79-1.1-1.21-.1-.48-.02-.94.21-1.43.12-.27.17-.52.04-.73-.12-.21-.49-.35-.68-.55-.35-.5-.09-1.08.37-1.56.05-.05.13-.06.2-.04h0Z"/>
</svg>